<?xml version="1.0" encoding="utf-8"?>
<!-- Generator: Adobe Illustrator 16.0.0, SVG Export Plug-In . SVG Version: 6.00 Build 0)  -->
<!DOCTYPE svg PUBLIC "-//W3C//DTD SVG 1.0//EN" "http://www.w3.org/TR/2001/REC-SVG-20010904/DTD/svg10.dtd">
<svg version="1.0" id="Layer_1" xmlns="http://www.w3.org/2000/svg" xmlns:xlink="http://www.w3.org/1999/xlink" x="0px" y="0px"
	 width="500px" height="540px" viewBox="0 0 500 540" enable-background="new 0 0 500 540" xml:space="preserve">
<g>
	<path fill-rule="evenodd" clip-rule="evenodd" fill="#F9F9F9" d="M169.844,301.514c0.214,0.156,0.433,0.315,0.649,0.474
		l-0.385-1.852L169.844,301.514z M138.729,275.293c0.281,0.314,0.561,0.63,0.844,0.938c2.103-11.004,4.203-22.009,6.305-33.003
		c-2.361-2.208-4.755-4.438-7.161-6.676L138.729,275.293z M205.56,316.696c-0.111-1.065-0.111-2.124-0.007-3.165
		c-0.078-0.055-0.144-0.114-0.218-0.171l-0.111,0.651l-3.172,0.112l-1.723,0.06c-3.827,0.136-7.65,0.286-11.447,0.45
		c9.353,6.033,19.884,12.229,31.234,17.928c-0.249-0.575-0.473-1.159-0.648-1.76C207.753,328.381,205.859,319.637,205.56,316.696
		 M494.853,229.573l-3.565-0.566l-1.92-0.301c-17.368-2.753-35.168-5.246-52.955-7.419c-13.76-28.102-25.03-42.985-25.506-43.604
		l-7.084-9.349l-11.39-15.034c-1.001-1.322-2.547-2.062-4.147-2.062c-0.538,0-1.083,0.083-1.616,0.257
		c-0.576,0.189-1.104,0.471-1.563,0.83c-0.067-0.203-0.146-0.402-0.24-0.595l-3.972-8.311l-2.469-5.16
		c-1.312-2.839-3.667-20.687-4.369-42.192l-0.122-3.7l-0.193-5.947c-0.09-2.693-2.221-4.873-4.909-5.023l-5.945-0.332l-3.683-0.204
		c-0.021-0.003-2.16-0.238-8.173-2.296l-0.177-2.845c-0.13-2.046-1.446-3.825-3.366-4.545l-3.938-1.48l-2.458-0.922l-12.409-4.656
		l-8.492-3.186l-0.392-0.146c-0.215-0.081-0.433-0.146-0.652-0.2l-0.405-0.091l-0.629-0.147l-1.797-0.422
		c-0.39-0.093-0.79-0.138-1.188-0.138c-0.557,0-1.112,0.091-1.646,0.266l-1.749,0.584l-6.805,2.27l-1.057,0.353
		c-0.556,0.186-1.078,0.465-1.542,0.825l-0.881,0.685l-11.375,8.845l-1.081,0.842l-1.751,1.361c-0.907,0.703-1.556,1.69-1.844,2.801
		l-0.558,2.146l-0.343,1.321c-2.812,10.805-4.623,21.541-5.395,31.946l-3.218,2.397c-0.173-0.081-0.35-0.162-0.525-0.241
		c4.858-13.625,8.406-31.608,2.55-48.071l-0.298-0.831l-0.47-1.314c-0.248-0.691-0.639-1.321-1.146-1.849l-0.976-1.013l-0.627-0.654
		c-1.433-1.477-14.539-14.586-34.316-20.361l0.092,0.03l-0.095-0.03c-0.038-0.014-0.079-0.025-0.12-0.037l-0.059-0.019l-0.286-0.082
		l-0.117-0.034l-0.455-0.128c-0.044-0.013-0.087-0.027-0.132-0.037l-1.527-0.39c-0.424-0.109-0.859-0.164-1.294-0.164h-0.09
		c-1.612-0.241-3.275-0.365-4.948-0.365c-2.452,0-4.96,0.26-7.378,0.756c-1.064,0.202-2.177,0.477-3.158,0.781
		c-1.472,0.435-2.662,0.873-3.627,1.342c-12.693,5.526-25.556,20.284-34.426,39.503c-11.837,25.642-12.737,49.391-2.378,62.078
		c2.94,4.252,8.826,11.463,17.558,16.255c-0.061,4.025-0.013,8.106,0.137,12.199l-1.851-0.718l-2.148-0.833l-3.445-1.334
		c-0.607-0.235-1.244-0.352-1.878-0.352c-1.144,0-2.274,0.376-3.206,1.106l-2.911,2.275l-1.817,1.423l-14.389,11.269l-1.597,1.254
		l-2.575,2.015c-1.297,1.015-2.036,2.583-1.995,4.229l0.082,3.266l0.051,2.016c0.104,4.398,0.363,8.965,0.76,13.613
		c-8.776,0.54-17.394,1.141-25.7,1.792l-20.237,1.864c-6.074-19.608-8.622-35.493-8.646-35.652l-3.378-21.796l-5.432-35.039
		c-0.386-2.482-2.488-4.336-4.998-4.403c-0.049-0.002-0.095-0.002-0.144-0.002c-2.452,0-4.577,1.713-5.088,4.121l-7.354,34.689
		l-4.577,21.582c-0.538,2.555-1.055,5.235-1.532,7.97c-1.326,5.715-4.49,19.501-7.461,33.656l-3.643,0.473l-1.627,0.211
		l-1.369,0.177c-13.978,1.811-28.086,3.839-41.936,6.028l-4.428,0.7l-8.154,1.286c-1.988,0.314-3.617,1.745-4.183,3.677
		c-0.565,1.929,0.032,4.014,1.536,5.351l6.173,5.484l3.343,2.971c3.622,3.227,7.242,6.458,10.809,9.656
		c-4.877,21.784-9.752,43.591-14.623,65.418l-0.682,3.045l-1.253,5.604c-0.377,1.682,0.103,3.439,1.281,4.695
		c0.992,1.056,2.368,1.643,3.795,1.643c0.269,0,0.541-0.021,0.811-0.063l5.67-0.896l2.491-0.393
		c-1.151,8.367-0.513,16.448,1.906,24.105c9.715,30.733,47.227,51.082,111.499,60.502c1.069,0.158,3.529,3.917,4.311,4.78
		c11.294,12.431,23.43,23.634,37.019,33.525c11.112,8.09,22.587,15.707,35.125,21.417c9.86,4.489,20.137,8.881,30.533,11.988
		c7.554,2.255,15.537,3.451,23.325,4.601c7.987,1.177,16.082,1.818,24.146,1.131c13.242-1.127,26.131-5.044,38.289-10.302
		c8.65-3.744,15.554-8.988,22.559-15.166c2.689-2.371,5.358-5.107,7.944-8.143c0.223-0.182,0.43-0.387,0.621-0.609
		c0.438-0.504,2.599-3.053,5.485-7.306c7.12,8.555,14.844,12.883,23.024,12.883c4.466,0,8.799-1.358,12.526-3.931
		c5.109-3.524,8.383-8.668,9.396-14.684c0.539-0.407,1.059-0.842,1.559-1.298c5.068-4.614,7.63-10.721,7.377-17.434
		c0.348-0.359,0.683-0.734,1.002-1.116c5.51-6.551,6.763-14.926,3.56-23.272c1.661-5.038,1.446-10.409-0.608-15.542
		c0.212-0.405,0.413-0.817,0.602-1.236c1.765-3.905,4.731-13.602-2.992-23.564c0.509-2.042,0.952-5.039,0.507-8.496
		c2.715-6.577,5.151-13.373,7.285-20.309c30.445,53.749,44.912,90.762,44.912,90.762c2.586,8.788,7.109,7.754,7.109,7.754
		c4.394-0.646,3.965-8.814,3.965-8.814c1.537-33.395-5.985-80.735-5.985-80.735l-2.33-13.679l5.948,1.167l4.014,0.615
		c0.263,0.042,0.527,0.062,0.792,0.062c1.135,0,2.245-0.373,3.157-1.07c1.127-0.858,1.851-2.14,2.009-3.548l0.455-4.034l0.247-2.189
		l1.035-9.138l1.089-9.621l0.227-2.016l0.424-3.722c0.315-2.772-1.614-5.302-4.375-5.73l-3.701-0.572l-0.989-0.154l0.143-1.346
		l0.237-2.206l1.959-18.502l0.219-2.023l0.049-0.488l3.905,0.617c0.27,0.042,0.54,0.062,0.81,0.062c1.16,0,2.296-0.388,3.221-1.118
		c1.143-0.898,1.852-2.23,1.967-3.678l0.329-4.204l0.181-2.298l0.098-1.266l1.368-17.605l0.142-1.944l0.275-3.587
		C499.431,232.405,497.528,229.996,494.853,229.573 M383.055,158.302l-0.266,16.913l-0.185,11.729
		c-0.155,9.89-0.551,19.543-1.179,28.775c-21.141-1.752-39.257-2.966-39.449-2.979c-7.29-0.432-14.679-0.813-21.971-1.136
		l-1.934-0.084l-3.555-0.156c-0.074-0.003-0.15-0.005-0.228-0.005c-1.017,0-1.98,0.299-2.792,0.814
		c-0.451-0.34-0.961-0.604-1.505-0.782c0.18-0.701,0.324-1.41,0.431-2.132c0.796-0.796,1.537-1.662,2.213-2.59
		c1.567-2.167,2.684-4.513,3.332-6.967l7.542,2.458l1.937,0.632l3.109,1.015c0.528,0.172,1.072,0.256,1.613,0.256
		c1.066,0,2.12-0.327,3.009-0.958l2.671-1.894l1.662-1.18l13.052-9.265l1.838-1.304l2.956-2.097
		c1.472-1.041,2.299-2.768,2.186-4.565l-0.224-3.62l-0.143-2.244l-0.731-11.688c5.207-2.981,8.618-4.358,9.517-4.549l5.597-0.589
		l9.157-0.964C381.563,159.058,382.365,158.762,383.055,158.302 M493.763,238.296l-0.146,1.954l-1.365,17.589l-0.096,1.265
		l-0.182,2.294l-0.33,4.207l-4.166-0.657l-2.268-0.357c-7.207-1.134-14.561-2.237-21.913-3.283l-0.225,2.26
		c4.524,0.635,8.989,1.285,13.323,1.934l2.004,0.302l3.695,0.553l-0.391,3.715l-0.214,2.019l-1.962,18.502l-0.235,2.201l-0.433,4.04
		l-4.02-0.596l-2.186-0.324c-4.296-0.636-8.606-1.258-12.866-1.853l-0.236,2.259c7.689,1.066,15.391,2.192,22.95,3.356l2.013,0.313
		l3.702,0.57l-0.423,3.724l-0.228,2.022l-1.088,9.621l-1.034,9.136l-0.247,2.191l-0.455,4.032l-4.014-0.614l-2.18-0.336
		c-3.613-0.553-7.242-1.084-10.874-1.611c3.14,14.609,5.813,30.266,7.737,46.898c0,0,1.321,6.164,2.009,55.097
		c-22.405-63.365-53.356-102.447-53.356-102.447c-2.25,8.606-5.593,19.332-10.407,30.768c0.685,3.297,0.248,6.202-0.204,7.971
		c-0.201,0.802-0.462,1.582-0.771,2.332c8.014,8.389,5.688,16.715,4.095,20.245c-0.408,0.912-0.977,1.963-1.758,3.039
		c3.646,6.699,2.526,12.359,0.896,15.979c3.373,7.085,2.736,14.279-1.929,19.823c-0.739,0.883-1.559,1.679-2.438,2.386
		c0.927,6.037-0.945,11.556-5.46,15.667c-0.914,0.833-1.901,1.558-2.953,2.168c-0.304,5.513-2.881,10.224-7.454,13.376
		c-2.853,1.971-6.165,3.014-9.573,3.014c-7.841,0-15.427-5.282-22.547-15.695c-0.262-0.383-0.503-0.756-0.749-1.133
		c-1.016,1.656-2.064,3.295-3.151,4.898c-3.129,4.76-5.542,7.625-5.995,8.15v-0.131c-2.663,3.203-5.422,6.06-8.212,8.502
		c-2.771,2.869-6.064,5.474-9.327,7.75c-3.045,2.124-6.266,3.994-9.601,5.619c-3.541,1.722-7.188,3.238-10.903,4.543
		c-13.213,4.638-27.269,7.278-41.279,6.231c-3.868-0.29-7.727-0.717-11.562-1.289c-13.221-1.975-25.754-5.984-38.254-10.603
		c-9.659-3.566-18.595-8.5-27.393-13.804c-10.565-6.369-20.977-13.051-30.397-21.053c-10.805-9.178-21.136-19.674-30.338-30.456
		c-63.315-8.989-100.052-28.228-109.211-57.198c-3.133-9.916-2.683-19.73-0.318-28.817c-2.257,0.348-4.523,0.689-6.763,1.045
		l-3.087,0.487l-5.67,0.896l1.254-5.604l0.683-3.042c5.092-22.824,10.191-45.623,15.288-68.396
		c-4.304-3.863-8.694-7.788-13.092-11.701l-3.349-2.977l-6.168-5.485l8.153-1.286l4.43-0.699
		c13.799-2.183,27.861-4.204,41.792-6.007l1.373-0.178c0.002-0.007,1.604-0.209,1.604-0.209l5.367-0.697
		c0.651-0.057,1.301-0.132,1.955-0.212c3.129-15.165,6.688-30.697,8.234-37.351c0.481-2.769,0.993-5.434,1.52-7.925l4.575-21.578
		l7.354-34.688l5.433,35.04l3.377,21.796c0.058,0.364,3.019,18.747,10.097,40.417l24.403-2.246
		c9.335-0.731,18.728-1.374,28.079-1.934l2.553-3.021c-0.521-5.383-0.844-10.67-0.966-15.752l-0.052-2.025l-0.082-3.265l2.574-2.016
		l1.6-1.253l14.389-11.271l1.815-1.422l2.91-2.276l3.444,1.337l2.146,0.83l6.054,2.348c1.019-0.865,2.041-1.73,3.063-2.588
		c-0.352-6.499-0.435-12.954-0.248-19.279c-9.322-4.121-15.567-11.664-18.672-16.198c-9.102-10.922-7.969-33.127,2.941-56.765
		c8.396-18.188,20.292-31.97,31.89-36.963c0.584-0.291,1.479-0.65,2.913-1.076c0.849-0.26,1.762-0.487,2.651-0.656
		c2.156-0.443,4.313-0.667,6.412-0.667c1.642,0,3.256,0.136,4.816,0.409l0.225-0.045l1.528,0.393l0.457,0.129l0.109,0.032
		l0.247,0.072l0.096,0.027l0.094,0.03c18.5,5.402,30.707,17.614,32.038,18.987l0.619,0.644l0.97,1.008l0.471,1.315l0.294,0.825
		c6.044,16.983,1.056,36.094-4.457,49.558c3.254,0.727,5.777,1.858,7.726,3.196l7.855-5.846c0.634-10.836,2.449-22.048,5.397-33.377
		l0.345-1.327l0.555-2.145l1.751-1.361l1.089-0.844l11.371-8.846l0.879-0.682l1.058-0.352l6.799-2.269l1.747-0.582l1.798,0.421
		l0.642,0.15l0.407,0.095l0.393,0.147l8.49,3.185l12.411,4.656l2.453,0.923l3.943,1.48l0.263,4.204l0.131,2.066
		c7.537,2.77,11.569,3.667,12.842,3.737l3.701,0.206l5.944,0.332l0.193,5.947l0.122,3.701c0.647,19.821,2.879,40.089,4.874,44.258
		l2.473,5.167l3.968,8.309l-9.157,0.964l-5.693,0.6c-1.909,0.2-7.619,2.81-14.264,6.86l0.929,14.865l0.14,2.246l0.226,3.617
		l-2.955,2.096l-1.839,1.302l-13.056,9.269l-1.662,1.179l-2.667,1.892l-3.109-1.014l-1.937-0.631l-13.807-4.5
		c0.449,3.799-0.5,7.593-2.897,10.903c-0.864,1.19-1.869,2.245-2.988,3.142c-0.11,3.41-1.335,6.635-3.587,9.361
		c0.692,0.021,1.394,0.04,2.081,0.062l1.568,0.054l2.879,0.096l0.755,2.78l0.408,1.513c0.932,3.444,1.862,6.886,2.791,10.33
		l1.216-8.953l0.263-1.918l0.482-3.525l3.555,0.155l1.932,0.084c7.294,0.323,14.656,0.703,21.892,1.132
		c0.339,0.022,21.564,1.452,44.563,3.409c0.823-10.458,1.381-21.873,1.578-34.315l0.184-11.729l0.296-18.857l11.389,15.034
		l7.082,9.35c0.526,0.688,12.262,16.287,26.213,45.284c18.569,2.235,37.209,4.825,55.581,7.735l1.929,0.304l3.557,0.562
		L493.763,238.296z M344.69,249.252l-3.733,26.955c1.854-0.408,3.639-0.632,5.351-0.632c2.563,0,4.974,0.482,7.16,1.385
		l4.207-33.055c-3.65-3.735-7.241-7.397-10.73-10.943L344.69,249.252z M349.843,249.966l0.803-5.806
		c0.518,0.525,1.034,1.052,1.551,1.583l-3.151,24.777c-0.671-0.072-1.347-0.118-2.029-0.137L349.843,249.966z M251.399,337.47
		c-4.227,2.097-8.014,3.443-11.469,4.095c7.11,2.885,14.428,5.476,21.887,7.633c-2.034-4.458-4.212-9.194-6.408-13.913
		C254.156,336.034,252.819,336.769,251.399,337.47"/>
	<path fill="#B9B8B8" d="M264.691,296.511c1.831-11.597,3.663-23.187,5.494-34.777c-2.635-4.322-5.089-8.615-7.371-12.868
		l-7.904,49.195c2.705-1.197,5.169-1.789,7.426-1.789C263.154,296.271,263.938,296.358,264.691,296.511 M218.845,247.886
		c0.001-0.01,0.002-0.021,0.002-0.035c0.012-0.528,0.042-1.027,0.08-1.514v-0.005c0.009-0.11,0.02-0.218,0.029-0.325
		c0.042-0.443,0.091-0.871,0.154-1.278c0.007-0.063,0.015-0.13,0.025-0.191c0-0.001,0-0.002,0.001-0.004
		c0.062-0.384,0.133-0.746,0.213-1.099v-0.003c0.045-0.197,0.094-0.385,0.145-0.572c0-0.003,0.001-0.005,0.002-0.008
		c0.041-0.152,0.081-0.299,0.125-0.444c0-0.002,0.001-0.003,0.002-0.005c0-0.002,0.001-0.003,0.002-0.004
		c0.104-0.354,0.22-0.686,0.345-1.006c0.015-0.042,0.031-0.084,0.048-0.125c0.129-0.319,0.263-0.627,0.408-0.915
		c0.007-0.013,0.014-0.029,0.02-0.042c-0.501-2.811-0.91-5.403-1.214-7.478c-0.972,5.627-1.947,11.261-2.92,16.893
		C217.634,248.452,218.845,247.886,218.845,247.886 M258.326,202.17c-0.045-0.167-0.091-0.335-0.132-0.501l-9.195,5.545
		c0,0,0.273,1.11,0.875,3.143c0.133-0.015,0.278-0.017,0.415-0.026c0.175-0.016,0.347-0.029,0.525-0.036h0.003
		c0.133-0.004,0.271-0.004,0.408-0.004c0.307-0.002,0.617,0.002,0.942,0.024c0,0,1.723-6.688,6.283-7.671
		C258.41,202.485,258.368,202.328,258.326,202.17 M343.222,141.878l0.906,14.391c0,0,13.247-8.26,21.252-9.102
		C365.38,147.167,348.369,141.687,343.222,141.878 M308.438,314.847c-0.472,0-0.932-0.035-1.386-0.091
		c11.806,19.089,25.906,42.493,27.113,47.327c0,0,10.115-0.846,19.807-5.057c0,0-15.829-21.861-30.266-42.134
		c-3.892-0.184-7.846-0.35-11.815-0.508C310.691,314.687,309.538,314.847,308.438,314.847 M365.353,145.048
		c-4.636-9.692-5.901-48.464-5.901-48.464c-7.586-0.421-20.135-5.738-20.135-5.738c0.953,17.438,4.123,48.189,4.123,48.189
		C342.72,139.323,363.06,144.05,365.353,145.048 M225.418,236.107c-0.177-0.169-0.348-0.336-0.524-0.504
		c0.059,0.203,0.118,0.404,0.176,0.608C225.185,236.172,225.301,236.14,225.418,236.107 M409.011,321.372l-0.552-0.058l-2.066-0.213
		c-2.502-0.259-5.011-0.508-7.525-0.754c-1.26,1.98-2.55,3.852-3.848,5.629c0.808,1.602,1.114,3.279,1.14,4.857
		c0.021,1.625-0.305,3.154-0.948,4.553c4.128,2.495,5.445,5.777,5.747,8.397C404.271,336.326,406.913,328.763,409.011,321.372
		 M273.611,240.04c-0.431-0.424-0.855-0.838-1.282-1.261l0.002,0.002c-0.65,0.838-1.339,1.582-2.046,2.251
		c-0.029,0.027-0.058,0.059-0.087,0.088c-0.282,0.264-0.568,0.507-0.855,0.748c-0.09,0.076-0.179,0.16-0.27,0.234
		c-0.256,0.207-0.51,0.392-0.766,0.581c-0.122,0.092-0.246,0.19-0.367,0.276c-0.233,0.167-0.462,0.313-0.694,0.463
		c-0.141,0.093-0.285,0.193-0.424,0.281c-0.216,0.132-0.422,0.25-0.633,0.37c-0.151,0.088-0.305,0.18-0.452,0.261
		c-0.197,0.107-0.385,0.202-0.575,0.298c-0.151,0.077-0.305,0.16-0.451,0.23c-0.181,0.088-0.351,0.163-0.523,0.242
		c-0.116,0.051-0.24,0.112-0.352,0.161c2.045,4.154,4.327,8.524,6.888,13.065C271.685,252.232,272.648,246.133,273.611,240.04
		 M385.54,319.399c0.652,0.17,1.254,0.361,1.831,0.563c0.352-0.2,0.712-0.401,1.057-0.601c-0.928-0.085-1.853-0.158-2.777-0.241
		C385.612,319.214,385.583,319.305,385.54,319.399 M421.704,224.789c-12.334-24.546-22.216-37.598-22.216-37.598
		c-0.202,12.748-0.769,24.441-1.603,35.17c7.614,0.698,15.077,1.437,21.689,2.185C420.283,224.625,420.993,224.71,421.704,224.789
		 M341.331,180.026l-19.387-5.056l-9.271,7.585l16.856,4.635L341.331,180.026z M342.595,177.919l-5.899-94.399l-20.229-7.586
		c-10.534,48.463,6.323,96.507,6.323,96.507L342.595,177.919z M346.81,454.375c0,0,9.906-11.466,16.188-29.071
		c0.06-0.168,0.118-0.332,0.176-0.498c0-0.002,0.001-0.002,0.001-0.004c0.978-2.781,1.862-5.712,2.599-8.776
		c0,0-9.692,8.007-16.435,10.113C349.338,426.139,357.345,438.783,346.81,454.375 M88.895,195.619c0,0-3.156,13.917-6.288,29.445
		c0.374-0.043,0.747-0.084,1.121-0.126C84.914,215.589,86.597,205.813,88.895,195.619 M101.539,354.92
		c0,0-6.658-11.472-12.308-32.628c-2.618,0.29-5.227,0.585-7.813,0.885l-3.499,0.405l-1.968,0.229v0.006l-2.776,0.338l-1.511,0.188
		c-7.702,0.943-15.418,1.952-22.927,2.995l-3.021,0.421l-1.151,0.159l-0.135,0.021l-1.451,0.211
		c-0.727,0.101-1.459,0.213-2.188,0.317c-9.359,27.796-0.294,63.935,96.991,77.447c0,0-13.065-14.329-15.593-18.121
		C122.188,387.792,77.938,367.562,101.539,354.92 M83.079,289.53c-0.749,3.598-1.498,7.186-2.246,10.785
		c0.903-2.314,1.811-4.643,2.716-6.964C83.387,292.094,83.227,290.824,83.079,289.53 M373.773,396.053
		c-0.075-0.114-0.146-0.228-0.219-0.34c-0.173-0.271-0.333-0.537-0.484-0.8c-0.065-0.114-0.133-0.227-0.193-0.339
		c-0.185-0.338-0.354-0.672-0.503-1c-0.058-0.126-0.104-0.248-0.157-0.375c-0.089-0.207-0.175-0.412-0.25-0.615
		c-0.061-0.164-0.115-0.326-0.17-0.488c-0.053-0.154-0.097-0.308-0.142-0.46c-0.121-0.421-0.221-0.831-0.292-1.228
		c-0.003-0.015-0.007-0.028-0.009-0.042c-8.764,7.347-15.274,10.067-15.274,10.067c-102.826,53.101-205.236-41.301-205.236-41.301
		c108.73,85.129,193.437,43.407,193.437,43.407c10.65-4.58,19.737-10.588,27.507-17.536c0.36-1.001,0.831-1.851,1.297-2.527
		c0.249-0.359,0.512-0.697,0.792-1.017c-4.947-5.347-4.014-10.222-2.779-12.95c0.122-0.269,0.256-0.533,0.394-0.786
		c-7.323-4.563-7.465-10.019-6.676-13.263c-0.495-0.223-0.953-0.458-1.391-0.7c-0.066,0.033-0.136,0.063-0.203,0.097
		c-9.877,4.883-19.958,8.205-30.113,10.212c-7.728-16.138-18.328-34.134-28.162-49.775c-0.181-0.06-0.356-0.128-0.534-0.197
		l-0.899-0.036l-0.101-0.422c-0.592-0.313-1.157-0.676-1.686-1.102c-4.449,3.098-8.466,4.665-11.983,4.665
		c-1.889,0-3.637-0.442-5.184-1.297c-1.405,0.955-2.95,1.897-4.623,2.81c-5.996,3.275-11.151,4.938-15.318,4.938
		c-0.672,0-1.316-0.053-1.944-0.138c7.387,15.631,15.173,32.951,18.643,40.716c-45.26-7.645-87.275-32.979-113.554-51.935
		l-0.084,0.444l-0.568,2.976l-3.024,0.188l-1.644,0.101c-7.554,0.462-15.303,0.995-23.039,1.585l-2.765,0.214l-1.07,0.081
		l-0.428,0.037l-1.951,0.158c-6.32,0.511-12.765,1.074-19.159,1.672l-2.444,0.229l-4.499,0.42l0.044-0.813l-0.327,0.855l-2.39,0.243
		l-1.301,0.134c-3.026,0.306-6.061,0.624-9.091,0.949c15.581,49.748,44.601,79.509,44.601,79.509
		c67.006,85.131,144.128,82.6,144.128,82.6c81.335-9.692,64.898-54.786,64.898-54.786c-79.229,37.929-176.578-48.465-176.578-48.465
		c105.339,74.539,166.85,59.025,202.241,23.527c-0.449-2.945,0.287-5.275,1.268-6.964
		C374.288,396.805,374.024,396.426,373.773,396.053 M457.733,327.313c-7.316-1.013-14.639-1.971-21.945-2.871
		c20.044,24.372,30.284,52.392,30.284,52.392C464.032,359.214,461.155,342.696,457.733,327.313 M421.076,249.743l-0.203,2.149
		l-0.367,3.941l-3.938-0.428l-2.14-0.233c-6.651-0.721-13.344-1.396-19.987-2.027c-0.117,0.78-0.237,1.551-0.356,2.316
		c6.584,0.622,13.307,1.297,20.046,2.017l2.148,0.23l3.95,0.424l-0.497,3.943l-0.269,2.142l-3.132,24.969
		c-0.556,6.914-1.391,13.424-2.452,19.555l-0.892,7.119l-0.259,2.06l-0.472,3.787l-1.056-0.108
		c-2.85,11.567-6.546,21.553-10.674,30.153c1.863,1.1,3.298,2.259,4.385,3.445c10.868-25.755,13.963-47.899,13.963-47.899
		c0.758,0.626,1.505,1.264,2.246,1.909l6.731-58.149c-2.534-2.662-3.664-5.304-6.165-7.917L421.076,249.743z M193.409,188.455
		l-0.421,8.851l6.744-6.322L193.409,188.455z M206.217,113.227c4.664,2.151,12.454-4.79,17.399-15.505
		c4.943-10.716,5.173-21.149,0.509-23.3c-4.666-2.153-12.456,4.789-17.399,15.504C201.78,100.642,201.552,111.073,206.217,113.227
		 M85.317,278.771c0.25,2.628,0.546,5.22,0.887,7.779c5.533-14.173,11.117-28.439,16.701-42.67
		c-2.888-2.666-5.778-5.318-8.665-7.967C91.267,250.187,88.292,264.481,85.317,278.771 M196.502,137.788
		c9.448,4.359,25.385-10.048,35.598-32.18c10.215-22.132,10.837-43.61,1.39-47.968c-9.446-4.361-25.385,10.047-35.597,32.179
		C187.678,111.952,187.056,133.429,196.502,137.788 M201.86,90.776c6.329-13.72,16.866-22.35,23.53-19.273
		c6.666,3.075,6.935,16.69,0.604,30.41c-6.332,13.72-16.866,22.347-23.531,19.272C195.798,118.109,195.529,104.495,201.86,90.776
		 M231.337,112.176l5.057,8.43c-1.256,8.483-0.17,32.662,0.463,44.415c-0.581,0.443-1.163,0.886-1.741,1.331
		c-3.318-22.081-2.337-36.907-2.129-39.449c0.697-1.754,1.353-3.625,1.941-5.652l-4.888-7.333c0,0-19.038,32.93-34.475,24.827
		c0,0,6.529,7.82,14.536,11.191c0,0,2.066-0.352,5.077-1.867c-0.958,11.626-0.867,23.113-0.01,34.24
		c-12.219,10.129-20.916,17.947-20.916,17.947c-0.848,2.965-0.206,9.971,0.644,16.21c5.986-0.233,12.108-0.435,18.265-0.597
		c1.902-1.321,3.92-2.71,6.033-4.156c0.182,0.931,0.366,1.857,0.554,2.779c-0.641,0.424-1.271,0.841-1.893,1.252l1.197-0.023
		c7.631-0.178,15.371-0.29,23.124-0.345c0.116-0.184,0.255-0.362,0.382-0.542c0.107-0.154,0.208-0.312,0.324-0.463
		c0.001-0.002,0.003-0.003,0.005-0.005c0.16-0.21,0.34-0.409,0.517-0.611c0.17-0.194,0.33-0.394,0.516-0.579
		c0,0,0.001,0,0.001-0.001c0.385-0.381,0.812-0.731,1.27-1.057l0.003-0.003c0.305-0.216,0.629-0.418,0.969-0.604
		c0-0.001,0.002-0.001,0.003-0.002c0.057-0.031,0.105-0.073,0.167-0.104c-0.336-0.958-0.669-1.913-0.986-2.861l9.169-6.183
		l50.798-29.928c2.662,5.578,4.831,8.435,4.831,8.435l9.691-7.163c-15.17-50.994-7.585-96.508-7.585-96.508l-11.38,8.851
		c-6.795,26.113-6.151,47.136-3.16,62.69c0.307,1.587,0.636,3.117,0.984,4.591c0.026,0.113,0.054,0.223,0.081,0.333
		c0.142,0.595,0.286,1.178,0.435,1.752c0.039,0.146,0.076,0.295,0.114,0.441c0.169,0.643,0.341,1.275,0.515,1.893
		c0.088,0.312,0.177,0.615,0.267,0.92c0.23,0.782,0.462,1.551,0.699,2.294c-0.493,0.322-1.021,0.668-1.554,1.02
		c-0.309,0.203-0.622,0.409-0.945,0.619c-0.134,0.09-0.275,0.182-0.412,0.272c-5.694,3.742-13.281,8.741-21.745,14.329
		c-0.002,0.001-0.005,0.004-0.009,0.006c-0.699,0.462-1.406,0.929-2.119,1.398c-0.03,0.02-0.059,0.04-0.09,0.06
		c-0.622,0.41-1.25,0.824-1.879,1.24c-5.095,3.365-10.43,6.889-15.81,10.445c-0.274-0.966-0.536-1.939-0.782-2.916
		c5.788-3.822,11.412-7.516,16.564-10.891c0.191-0.125,0.384-0.25,0.574-0.375c0.388-0.255,0.771-0.506,1.153-0.755
		c0.045-0.029,0.089-0.059,0.133-0.088c9.438-6.176,17.055-11.126,20.754-13.526c0.282-0.183,0.537-0.348,0.774-0.501
		c0.186-0.122,0.354-0.231,0.511-0.333c0.022-0.014,0.045-0.028,0.067-0.042c0.351-0.229,0.623-0.405,0.806-0.522
		c0.186-0.12,0.281-0.183,0.281-0.183c-0.206-0.72-0.403-1.425-0.595-2.121c-0.073-0.266-0.141-0.526-0.212-0.788
		c-0.111-0.422-0.225-0.843-0.332-1.258c-0.081-0.313-0.157-0.622-0.236-0.93c-0.087-0.346-0.172-0.688-0.255-1.027
		c-0.083-0.339-0.163-0.672-0.242-1.003c-0.069-0.289-0.134-0.573-0.2-0.859c-0.083-0.36-0.166-0.72-0.245-1.073
		c-0.046-0.209-0.09-0.416-0.135-0.622c-0.318-1.475-0.601-2.886-0.845-4.233c-0.007-0.041-0.016-0.084-0.022-0.125
		c-2.722-15.142-0.896-22.204-0.896-22.204l-32.448,24.442c-1.034,0.654-2.085,1.336-3.141,2.029
		c-0.215,0.141-0.429,0.283-0.646,0.425c-1.067,0.705-2.142,1.424-3.221,2.162c-0.702,0.478-1.405,0.959-2.11,1.448
		c-0.076-2.777-0.092-5.401-0.067-7.82c0-0.045,0.001-0.091,0.002-0.135c0.005-0.618,0.015-1.222,0.026-1.813
		c0.001-0.046,0.002-0.089,0.003-0.134c0.011-0.592,0.023-1.171,0.041-1.733c0-0.028,0.001-0.055,0.002-0.082
		c0.048-1.744,0.114-3.331,0.186-4.735c0.002-0.024,0.003-0.048,0.003-0.071c0.024-0.453,0.048-0.882,0.072-1.295
		c0.002-0.027,0.003-0.056,0.005-0.084c0.023-0.404,0.047-0.789,0.072-1.152c0.001-0.029,0.003-0.058,0.005-0.086
		c0.075-1.117,0.145-2.036,0.203-2.725c0.001-0.017,0.002-0.034,0.004-0.051c0.019-0.216,0.036-0.403,0.051-0.57
		c0.002-0.023,0.004-0.042,0.006-0.063c0.013-0.157,0.026-0.29,0.037-0.399c0.002-0.02,0.002-0.034,0.004-0.051
		c0.01-0.107,0.019-0.191,0.025-0.247c0.001-0.005,0.001-0.002,0.001-0.009c0.005-0.052,0.009-0.085,0.009-0.085
		s1.413-2.212,3.35-5.901c5.551-10.578,15.433-33.4,8.87-51.835c0,0-11.378-11.8-28.235-16.436
		C235.973,56.97,252.83,73.827,231.337,112.176 M247.351,196.041l0.387-0.064c-1.763,1.166-3.518,2.326-5.26,3.477
		c-0.283-0.96-0.559-1.916-0.828-2.864c1.369-0.912,2.744-1.825,4.118-2.737C246.717,195.254,247.351,196.041,247.351,196.041
		 M88.582,224.384l2.37-0.26l4.692-0.501l5.908-0.544c-6.947-21.848-9.707-39.682-9.707-39.682
		c-2.713,12.814-4.402,27.568-5.452,41.235C87.119,224.552,87.859,224.464,88.582,224.384 M181.324,217.046l0.754,3.155l0.412,1.716
		c0.764,3.201,1.53,6.404,2.294,9.607l1.692-9.947l0.291-1.693l0.533-3.113l3.151-0.128l1.715-0.071
		c0.02-0.001,0.039-0.002,0.059-0.003c-2.025-15.287-2.609-28.115-2.609-28.115l-12.642,10.536
		c0.152,6.263,0.612,12.384,1.26,18.214L181.324,217.046z"/>
	<path fill="#005191" d="M96.909,363.163c-0.101,2.563,5.885,7.511,16.535,12.756c-3.487-5.581-6.762-11.358-9.796-17.285
		C98.467,360.555,96.94,362.371,96.909,363.163 M53.389,296.611c0.726-3.27,1.45-6.544,2.173-9.815
		C54.837,290.067,54.113,293.342,53.389,296.611z M334.065,282.135c0.597,0.703,1.184,1.577,1.65,2.614
		C335.25,283.712,334.662,282.838,334.065,282.135 M494.019,234.707v-0.006l-3.557-0.563l-1.928-0.303
		c-18.366-2.91-37-5.499-55.566-7.732c-13.951-28.994-25.684-44.59-26.208-45.278l-7.082-9.35l-11.39-15.034l-0.296,18.857
		l-0.184,11.729c-0.197,12.439-0.756,23.851-1.577,34.308c-23.006-1.958-44.242-3.389-44.581-3.41
		c-7.235-0.429-14.599-0.81-21.892-1.133l-1.934-0.084l-3.553-0.154l-0.483,3.525l-0.264,1.919l-1.208,8.913
		c-0.926-3.429-1.852-6.854-2.778-10.283l-0.41-1.514l-0.754-2.779l-0.017-0.001l-0.002-0.007l-2.878-0.097l-1.568-0.053
		c-0.682-0.023-1.374-0.041-2.057-0.062c2.247-2.725,3.47-5.946,3.58-9.353c1.12-0.898,2.125-1.952,2.987-3.143
		c2.398-3.312,3.348-7.104,2.897-10.903l13.808,4.5l1.937,0.632l3.108,1.014l2.668-1.893l1.662-1.179l13.056-9.269l1.838-1.302
		l2.956-2.097l-0.225-3.618l-0.142-2.245l-0.928-14.865c6.644-4.05,12.355-6.66,14.264-6.86l5.693-0.599l9.157-0.965l-3.969-8.308
		l-2.471-5.167c-1.996-4.169-4.229-24.437-4.875-44.259l-0.123-3.7l-0.193-5.947l-5.944-0.333l-3.7-0.205
		c-1.272-0.07-5.306-0.967-12.841-3.736l-0.133-2.066l-0.262-4.204l-3.943-1.481l-2.454-0.923l-12.409-4.656l-8.491-3.185
		l-0.393-0.146l-0.407-0.095l-0.642-0.15l-1.798-0.421l-1.747,0.583l-6.8,2.267l-1.057,0.353l-0.879,0.682l-11.372,8.846
		l-1.087,0.844l-1.752,1.361l-0.556,2.146l-0.344,1.325c-2.947,11.33-4.763,22.542-5.398,33.378l-7.854,5.846
		c-1.947-1.338-4.473-2.467-7.726-3.195c5.512-13.464,10.499-32.575,4.456-49.559l-0.294-0.824l-0.471-1.316l-0.97-1.006
		l-0.618-0.645c-1.332-1.374-13.538-13.585-32.038-18.987l-0.095-0.03l-0.095-0.027l-0.248-0.073l-0.109-0.033l-0.457-0.128
		l-1.528-0.392l-0.223,0.045c-1.559-0.273-3.175-0.411-4.816-0.411c-2.098,0-4.256,0.225-6.411,0.667
		c-0.89,0.168-1.804,0.396-2.652,0.656c-1.436,0.426-2.329,0.784-2.913,1.076c-11.6,4.994-23.495,18.776-31.892,36.963
		c-10.909,23.639-12.042,45.843-2.939,56.766c3.104,4.534,9.35,12.075,18.671,16.197c-0.187,6.326-0.105,12.781,0.247,19.28
		c-1.021,0.858-2.043,1.724-3.063,2.587l-6.054-2.345l-2.146-0.831l-3.444-1.336l-2.91,2.276l-1.816,1.421l-14.389,11.271
		l-1.6,1.252l-2.575,2.016l0.082,3.267l0.052,2.024c0.122,5.082,0.446,10.369,0.965,15.752l-2.542,3.011
		c-9.36,0.56-18.761,1.203-28.106,1.936l-24.389,2.244c-7.074-21.665-10.037-40.044-10.093-40.407l-3.379-21.795l-5.432-35.042
		l-7.354,34.688l-4.576,21.579c-0.527,2.492-1.037,5.156-1.52,7.925c-1.544,6.652-5.103,22.179-8.231,37.34
		c-0.296,0.038-0.589,0.071-0.885,0.107c-0.358,0.041-0.716,0.084-1.072,0.116l-0.02,0.003l0.002-0.011l-5.368,0.695l-1.603,0.204
		l-0.002,0.006l-1.372,0.178c-13.93,1.804-27.993,3.825-41.792,6.008l-4.431,0.697l-8.152,1.287l6.168,5.485l3.349,2.975
		c4.398,3.914,8.789,7.837,13.092,11.702c-5.098,22.774-10.195,45.571-15.287,68.396l-0.683,3.042l-1.254,5.604l0.021-0.002
		l-0.003,0.012l5.671-0.896l3.086-0.487c2.242-0.354,4.506-0.697,6.763-1.045c-2.364,9.089-2.813,18.901,0.319,28.817
		c9.159,28.971,45.896,48.211,109.21,57.198c9.203,10.782,19.535,21.278,30.339,30.456c9.42,8.002,19.831,14.684,30.397,21.053
		c8.798,5.304,17.732,10.237,27.392,13.804c12.5,4.618,25.035,8.628,38.256,10.603c3.834,0.572,7.692,0.999,11.56,1.289
		c14.013,1.049,28.066-1.594,41.28-6.233c3.714-1.305,7.361-2.819,10.902-4.543c3.335-1.623,6.558-3.493,9.601-5.615
		c3.264-2.276,6.558-4.883,9.327-7.75c2.791-2.442,5.549-5.303,8.213-8.504v0.131c0.453-0.525,2.866-3.393,5.996-8.15
		c1.085-1.604,2.135-3.242,3.149-4.898c0.249,0.375,0.488,0.75,0.75,1.133c7.121,10.413,14.705,15.695,22.546,15.695
		c3.409,0,6.721-1.045,9.575-3.014c4.571-3.152,7.15-7.863,7.454-13.376c1.051-0.61,2.037-1.335,2.951-2.17
		c4.514-4.109,6.387-9.628,5.461-15.667c0.88-0.705,1.699-1.503,2.438-2.384c4.665-5.544,5.301-12.736,1.928-19.823
		c1.632-3.619,2.752-9.279-0.895-15.979c0.78-1.078,1.349-2.127,1.759-3.039c1.591-3.53,3.918-11.856-4.096-20.243
		c0.311-0.752,0.569-1.532,0.772-2.334c0.451-1.769,0.889-4.674,0.204-7.971c4.813-11.436,8.155-22.161,10.406-30.766
		c0,0,30.951,39.08,53.356,102.445c-0.688-48.933-2.009-55.097-2.009-55.097c-1.925-16.633-4.598-32.289-7.738-46.9
		c3.632,0.529,7.262,1.063,10.874,1.613l2.18,0.336l4.014,0.614l0.455-4.032l0.248-2.191l1.034-9.138l1.088-9.619l0.228-2.022
		l0.423-3.724l-0.02-0.002l0.002-0.006l-3.703-0.572l-2.013-0.311c-7.553-1.164-15.246-2.29-22.931-3.354l0.236-2.253
		c4.258,0.595,8.569,1.215,12.865,1.853l2.185,0.324l4.021,0.596l0.433-4.042l0.233-2.199l1.962-18.502l0.215-2.019l0.39-3.714
		l-0.018-0.002v-0.008l-3.694-0.553l-2.004-0.301c-4.328-0.649-8.788-1.298-13.304-1.931l0.222-2.255
		c7.354,1.046,14.706,2.148,21.914,3.283l2.268,0.357l4.168,0.656l0.328-4.207l0.181-2.294l0.097-1.265l1.364-17.588l0.147-1.954
		l0.274-3.587L494.019,234.707z M394.31,187.126l0.186-11.725l7.081,9.348c0.489,0.645,10.9,14.522,23.711,40.448
		c-1.905-0.218-3.81-0.44-5.712-0.651c-8.104-0.918-17.481-1.82-26.861-2.65C393.544,211.29,394.109,199.732,394.31,187.126
		 M173.344,195.807l14.394-11.273l1.81-1.417l2.146,0.831l9.665,3.75c2.836-2.428,5.681-4.83,8.49-7.172
		c-0.627-9.219-0.701-18.323-0.219-27.165c-0.076,0.014-0.134,0.022-0.178,0.03l-1.002,0.15l-0.955-0.341
		c-9.085-3.242-15.167-10.667-18.073-14.975c-7.496-8.618-6.015-29.129,3.663-50.1c7.691-16.665,18.731-29.625,28.813-33.826
		c0.127-0.09,0.821-0.374,1.925-0.698c0.703-0.216,1.387-0.386,2.035-0.506c1.751-0.367,3.498-0.553,5.19-0.553
		c1.635,0,3.224,0.176,4.728,0.523l0.084,0.017l0.051-0.011c0.159,0.044,0.316,0.091,0.474,0.136l0.236,0.069
		c0.061,0.019,0.123,0.036,0.183,0.055c17.229,5.031,28.699,16.77,29.179,17.267l0.606,0.629l0.293,0.824
		c6.699,18.822-2.087,41.187-8.027,53.017c0.34-0.007,0.685-0.013,1.012-0.013c9.8,0,14.037,2.883,15.655,6.234l14.957-11.135
		c0.429-11.331,2.225-23.135,5.344-35.122l0.345-1.332l1.087-0.844l11.378-8.849l6.802-2.269l0.643,0.151l8.49,3.185l12.41,4.657
		l2.454,0.921l0.163,2.615l0.229,3.637c8.629,3.376,15.528,5.463,18.716,5.641l3.696,0.208l0.121,3.699
		c0.497,15.248,2.376,40.304,5.506,46.85l2.473,5.168l-5.695,0.6c-4.599,0.484-14.181,5.887-20.313,9.883l1.166,18.714l0.144,2.247
		l-1.837,1.304l-13.064,9.271l-1.658,1.178l-1.936-0.632l-19.388-6.32l-0.943-0.309c-0.015,0.033-0.028,0.068-0.042,0.1
		c-0.553,1.238-1.646,2.947-3.729,4.207c3.438,5.167,1.439,9.265,0.115,11.096c-0.918,1.262-2.394,2.685-4.667,3.466
		c1.441,4.835-0.931,8.069-2.357,9.488c-1.533,1.526-3.436,2.466-5.563,2.761c0.008,0.094,0.002,0.181,0.008,0.273
		c-8.916-0.221-17.924-0.37-26.934-0.436l-2.111-0.014l-3.603-0.009c-1.501-0.006-2.998-0.012-4.5-0.012
		c-11.486,0-23.054,0.133-34.375,0.396l-1.605,0.031l-1.003,0.027l-2.493,0.065c-7.362,0.192-14.689,0.437-21.786,0.728l-1.715,0.07
		l-3.152,0.129l-0.533,3.113l-0.29,1.693l-1.693,9.948c-0.764-3.203-1.53-6.408-2.294-9.609l-0.411-1.716l-0.755-3.154l-3.239,0.167
		l-1.762,0.09c-1.217,0.062-2.444,0.135-3.664,0.2l0.354-0.42c-0.667-6.16-1.076-12.207-1.216-17.995l-0.052-2.03L173.344,195.807z
		 M85.247,190.425c0.477-2.758,0.985-5.402,1.506-7.865l4.573-21.577l3.38,21.796c0.056,0.365,2.933,18.348,9.905,40.019
		l-8.968,0.825l-4.692,0.5l-2.37,0.261c-3.676,0.407-7.396,0.835-11.131,1.275C80.466,211.195,83.787,196.718,85.247,190.425
		 M468.954,376.367l4.756,34.008l-12.571-32.151c-0.132-0.359-11.307-30.408-32.549-54.658c10.698,1.266,21.468,2.668,32.204,4.174
		C464.118,342.822,466.949,359.048,468.954,376.367 M489.707,239.947l-1.361,17.584l-0.1,1.264l-0.179,2.288l-2.266-0.356
		c-8.563-1.348-17.299-2.643-26.005-3.859l-0.993,10.037c5.693,0.787,11.399,1.608,16.994,2.448l2.009,0.301l-0.217,2.019
		l-1.96,18.498l-0.234,2.198l-2.185-0.324c-5.689-0.841-11.364-1.652-16.902-2.41l-1.044,10.029
		c8.845,1.203,17.792,2.498,26.625,3.86l2.013,0.31l-0.229,2.024l-1.089,9.621l-1.032,9.134l-0.249,2.191l-2.178-0.334
		c-3.389-0.517-6.79-1.019-10.198-1.512c-13.811-2.013-27.736-3.851-41.543-5.47l-2.104-0.246l0.243-2.105l7.811-67.442
		c-4.981-5.236-9.923-10.401-14.741-15.418l-0.242,2.62l-1.16,12.487l-0.2,2.146l-2.14-0.234c-8.684-0.943-17.517-1.825-26.281-2.62
		l-1.73,13.437l-3.802,29.513l1.554,0.136l4.049-30.837l0.266-2.022l2.031,0.186c7.527,0.694,15.191,1.459,22.778,2.272l2.149,0.231
		l-0.271,2.141l-3.89,31l-2.587,20.646l-0.258,2.058l-2.065-0.214c-6.748-0.696-13.555-1.347-20.36-1.954
		c-0.01,1.154-0.216,2.476-0.78,3.848c6.933,0.618,13.868,1.277,20.739,1.986l2.066,0.213l3.798,0.394l0.474-3.789l0.258-2.058
		l2.587-20.645l3.889-30.999l0.269-2.141l0.498-3.942l-3.95-0.426l-2.149-0.229c-7.566-0.81-15.125-1.566-22.472-2.246l0.3-2.329
		c7.451,0.694,14.992,1.456,22.47,2.268l2.14,0.232l3.938,0.429l0.369-3.941l0.202-2.15l0.611-6.6
		c2.501,2.613,3.63,5.255,6.165,7.918l-7.439,64.258c-1.837,9.031-5.824,25.174-13.459,42.869c1.181,2.527,1.126,5.04,0.571,7.214
		c-0.374,1.474-1.204,3.462-3.04,5.144c8.656,6.133,8.661,12.102,6.736,16.37c-0.646,1.432-1.934,3.443-4.385,4.819
		c6.114,6.974,4.984,12.405,2.507,16.003c-0.19,0.276-0.39,0.539-0.595,0.788c5.349,7.799,2.838,13.094,0.634,15.716
		c-1.394,1.658-3.137,2.786-5.134,3.343c3.008,7.011,0.736,11.441-2.169,14.088c-1.547,1.409-3.387,2.298-5.391,2.609
		c1.437,7-1.833,10.67-4.326,12.388c-1.793,1.238-3.773,1.866-5.884,1.866c-0.053,0-0.107-0.008-0.163-0.008
		c-0.069,0.002-0.139,0.008-0.21,0.008c-5.563,0-11.343-4.33-17.177-12.865c-3.07-4.492-4.862-8.259-5.782-11.426
		c-2.645,5.208-5.611,10.415-8.916,15.285c-3.076,4.676-5.403,7.379-5.499,7.491l-0.069-0.051c-2.509,3.021-5.102,5.695-7.713,7.96
		c-11.42,11.943-31.221,19.67-58.855,22.963l-0.168,0.02l-0.18,0.006c0,0-0.283,0.01-0.837,0.01
		c-7.84,0-78.069-2.178-141.153-77.458c-62.131-8.466-97.916-26.315-106.37-53.063c-3.026-9.57-2.205-19.136,0.515-27.932
		c3.029-0.45,6.062-0.9,9.076-1.329l1.451-0.209l0.136-0.021l1.15-0.159l3.021-0.421c7.509-1.043,15.226-2.052,22.928-2.997
		l1.51-0.184l2.777-0.34v-0.006l1.967-0.229l3.5-0.405c7.151-0.831,14.451-1.625,21.696-2.357l1.301-0.132l2.391-0.245l0.325-0.855
		l-0.042,0.813l4.498-0.42l2.445-0.229c6.393-0.598,12.838-1.161,19.158-1.672l1.951-0.16l0.429-0.033l1.069-0.083l2.765-0.212
		c7.736-0.594,15.486-1.125,23.039-1.587l1.644-0.101l3.024-0.188l0.568-2.976l0.306-1.617l0.634-2.45
		c24.508,17.696,63.031,41.204,104.692,50.126c-3.828-8.508-9.467-20.908-14.939-32.521c-2.002,1.339-3.917,2.435-5.725,3.26
		c-1.262,0.784-2.663,1.558-4.167,2.303c-5.202,2.58-9.643,3.892-13.191,3.892c-4.058,0-7.232-1.736-8.938-4.881
		c-0.593-1.1-1.376-3.151-0.883-5.728l0.017-0.021c0.012-0.061,0.014-0.118,0.026-0.18c-10.94-0.195-13.149-5.625-13.483-8.887
		c-0.15-1.459-0.01-3.544,1.321-5.646c-3.079-1.252-5.294-2.825-6.708-4.736c4.33-25.062,8.663-50.11,12.99-75.135
		c3.328,3.208,6.621,6.392,9.846,9.518c-3.79,22.133-7.581,44.279-11.373,66.44l-0.434,2.526l-0.799,4.652l4.718-0.089l2.569-0.05
		c4.026-0.081,8.159-0.144,12.353-0.189l3.686-3.938c-5.423,0.047-10.821,0.122-16.116,0.227l-2.564,0.05l0.434-2.529
		c3.909-22.838,7.813-45.659,11.72-68.468c-5.173-5.022-10.536-10.2-15.95-15.401l-0.681-0.652
		c-4.952,28.607-9.904,57.242-14.852,85.9l-0.293,1.698l-1.721,0.06c-7.327,0.26-14.715,0.578-21.96,0.945l-1.813,0.091
		l-0.371-1.779c-2.033-9.785-4.063-19.566-6.094-29.342l-4.945,25.838l-0.836,4.363l-0.31,1.619l-1.644,0.101
		c-7.633,0.466-15.404,1.001-23.097,1.589l-2.765,0.214l0.519-2.723c4.411-23.135,8.824-46.253,13.238-69.35
		c-4.998-4.678-10.141-9.466-15.302-14.247l0.03,84.481l0.001,1.959l-1.95,0.158c-6.384,0.515-12.847,1.08-19.207,1.676
		l-2.444,0.231l0.128-2.452l0.019-0.371l0.246-4.728c-1.538,0.145-3.075,0.293-4.613,0.444l-2.52,6.593l-0.467,1.219l-1.3,0.134
		c-7.286,0.738-14.606,1.534-21.751,2.361l-3.497,0.407l1.277-3.282c9.568-24.587,19.241-49.342,28.766-73.601
		c-4.224-3.904-8.446-7.782-12.665-11.646l-3.028-2.772l-0.499,2.399c-6.106,29.29-12.211,58.621-18.312,87.991l-0.309,1.488
		l-1.511,0.184c-7.698,0.946-15.433,1.957-22.991,3.005l-3.021,0.421l0.659-2.979c1.536-6.944,3.071-13.882,4.61-20.82
		c0.796-3.598,1.591-7.196,2.387-10.79c-0.417,0.058-0.834,0.114-1.253,0.172c-0.948,4.255-1.896,8.512-2.844,12.769
		c-1.514,6.8-3.027,13.598-4.543,20.401l-0.319,1.43l-1.451,0.209c-4.7,0.67-9.431,1.376-14.156,2.095
		c-2.94,0.442-5.873,0.895-8.793,1.356l-3.08,0.488l0.681-3.043c5.26-23.57,10.521-47.111,15.787-70.628
		c-4.847-4.354-9.822-8.804-14.805-13.236l-3.35-2.979l4.429-0.699c13.836-2.188,27.862-4.205,41.686-5.994l2.938-0.38l-0.587,2.904
		c-2.131,10.509-4.263,21.021-6.393,31.54c0.418-0.058,0.837-0.11,1.255-0.167l5.883-29.215l0.75-3.718l0.3-1.495l1.512-0.192
		c3.356-0.419,6.746-0.831,10.141-1.232c4.131-0.49,8.269-0.969,12.392-1.423l2.367-0.261l-0.005-0.005l4.682-0.495l39.917-3.671
		c5.167-0.405,10.359-0.779,15.552-1.13c0.586-0.04,1.172-0.081,1.758-0.12c5.311-0.355,10.625-0.684,15.917-0.981h0.001
		c2.444-0.138,4.891-0.276,7.324-0.4l1.761-0.091l0.41,1.715c2.244,9.394,4.487,18.791,6.73,28.191l4.898-28.782l0.288-1.692
		l1.717-0.069c7.173-0.292,14.476-0.536,21.725-0.726l-0.009-0.009l2.491-0.057l1.018-0.028v0.004l1.589-0.036
		c11.348-0.261,22.886-0.393,34.287-0.393c1.496,0,2.994,0.007,4.491,0.012l-0.015-0.014l3.601,0.025l2.114,0.011v0.004
		c8.783,0.062,17.622,0.208,26.421,0.421c4.595,0.113,9.184,0.237,13.739,0.391l1.567,0.051l0.412,1.513
		c2.604,9.657,5.21,19.318,7.815,28.987l3.819-28.105l0.26-1.917l1.936,0.085c7.273,0.321,14.612,0.702,21.83,1.126
		c0,0,0.087,0.007,0.227,0.016c0.189,0.013,0.496,0.034,0.921,0.063c0.33,0.021,0.738,0.051,1.199,0.081
		c0.105,0.008,0.204,0.015,0.314,0.022c0.213,0.017,0.435,0.031,0.671,0.046c0.053,0.004,0.109,0.01,0.162,0.012
		c0.217,0.016,0.443,0.032,0.678,0.048c0.104,0.007,0.208,0.014,0.317,0.022c0.286,0.02,0.583,0.041,0.892,0.063
		c0.121,0.008,0.249,0.016,0.372,0.025c0.217,0.016,0.439,0.032,0.665,0.048c0.141,0.011,0.283,0.021,0.427,0.03
		c0.339,0.024,0.687,0.05,1.046,0.075c0.146,0.01,0.301,0.022,0.451,0.031c0.235,0.018,0.475,0.035,0.72,0.053
		c0.205,0.014,0.411,0.029,0.623,0.044c0.394,0.028,0.79,0.057,1.203,0.087c0.029,0.002,0.06,0.005,0.089,0.006
		c0.418,0.032,0.85,0.062,1.288,0.094c0.153,0.011,0.307,0.022,0.463,0.034c0.328,0.024,0.665,0.049,1.006,0.073
		c0.304,0.023,0.612,0.045,0.923,0.068c0.302,0.022,0.604,0.044,0.911,0.068c0.27,0.019,0.542,0.041,0.816,0.061
		c0.278,0.021,0.557,0.042,0.837,0.062c0.209,0.017,0.415,0.031,0.627,0.047c0.493,0.037,0.998,0.075,1.505,0.112
		c0.236,0.019,0.473,0.036,0.712,0.054c0.346,0.026,0.695,0.054,1.049,0.08c0.228,0.016,0.454,0.035,0.684,0.051
		c0.538,0.042,1.081,0.082,1.631,0.125c0.205,0.017,0.41,0.033,0.616,0.048c0.361,0.028,0.726,0.056,1.089,0.085
		c0.29,0.022,0.578,0.044,0.871,0.066c0.535,0.042,1.072,0.084,1.615,0.126c0.253,0.021,0.509,0.04,0.763,0.06
		c0.352,0.027,0.703,0.056,1.057,0.083c0.303,0.024,0.606,0.048,0.911,0.072c0.558,0.044,1.119,0.09,1.685,0.134
		c0.269,0.021,0.541,0.042,0.813,0.065c0.377,0.03,0.757,0.06,1.136,0.091c0.281,0.022,0.561,0.044,0.842,0.068
		c0.612,0.049,1.227,0.099,1.846,0.15c0.184,0.014,0.371,0.031,0.555,0.045c0.494,0.041,0.99,0.08,1.488,0.122
		c0.254,0.021,0.507,0.042,0.759,0.063c0.545,0.045,1.091,0.089,1.64,0.135c0.247,0.023,0.497,0.042,0.747,0.063
		c0.533,0.045,1.068,0.09,1.604,0.136c0.231,0.019,0.462,0.039,0.693,0.059c0.627,0.054,1.256,0.107,1.888,0.161
		c0.063,0.006,0.127,0.012,0.191,0.017c0.685,0.059,1.371,0.118,2.058,0.178c0.22,0.019,0.439,0.038,0.66,0.057
		c0.593,0.052,1.186,0.104,1.778,0.158c9.401,0.83,18.82,1.736,26.985,2.661c2.728,0.304,5.459,0.617,8.194,0.936
		c4.66,0.544,9.329,1.117,13.999,1.708c0.62,0.077,1.241,0.154,1.862,0.234c4.442,0.566,8.887,1.155,13.328,1.763
		c0.787,0.107,1.574,0.215,2.361,0.325c4.424,0.612,8.842,1.24,13.255,1.892c0.652,0.095,1.305,0.193,1.958,0.291
		c4.62,0.687,9.234,1.39,13.83,2.118l1.933,0.306L489.707,239.947z M205.559,316.696c0.3,2.942,2.194,11.685,13.908,14.105
		c0.175,0.601,0.398,1.185,0.648,1.762c-11.349-5.7-21.882-11.896-31.234-17.93c3.796-0.164,7.621-0.314,11.448-0.45l1.721-0.062
		l3.172-0.11l0.111-0.651c0.075,0.057,0.143,0.116,0.22,0.171C205.448,314.572,205.448,315.633,205.559,316.696 M239.929,341.564
		c3.457-0.651,7.243-1.998,11.469-4.095c1.42-0.701,2.758-1.436,4.012-2.186c2.196,4.719,4.372,9.455,6.407,13.913
		C254.358,347.04,247.039,344.449,239.929,341.564 M138.719,236.56c2.399,2.235,4.787,4.456,7.141,6.661
		c-2.102,10.992-4.201,21.991-6.302,32.993c-0.279-0.302-0.553-0.611-0.829-0.92L138.719,236.56z M80.833,300.315
		c4.468-21.488,8.936-42.955,13.407-64.402c2.888,2.648,5.776,5.301,8.666,7.967C95.509,262.729,88.111,281.643,80.833,300.315
		 M152.981,224.728c4.777-0.323,9.558-0.625,14.336-0.901C162.538,224.103,157.758,224.405,152.981,224.728 M357.716,290.571
		c0.036,0.156,0.076,0.308,0.105,0.466c-0.021-0.095-0.039-0.188-0.06-0.28C357.75,290.695,357.73,290.635,357.716,290.571
		 M356.66,343.138c0.049-0.897,0.203-1.763,0.456-2.586c-4.51-2.819-5.352-6.778-5.388-9.221c-0.006-0.417,0.013-0.827,0.051-1.234
		c-6.747-1.637-8.682-6.067-9.215-8.93c-0.025-0.139-0.045-0.276-0.065-0.415l-0.065,0.048c-5.924-0.249-8.864-3.013-10.319-5.491
		c-0.073-0.122-0.146-0.247-0.211-0.369c-1.296,0.282-2.523,0.429-3.68,0.45c10.971,15.128,22.379,30.651,27.156,37.143
		c1.294-0.568,2.576-1.169,3.854-1.787C356.927,348.084,356.547,345.17,356.66,343.138 M392.158,227.675
		c-6.201-0.577-12.404-1.114-18.61-1.615C379.754,226.565,385.957,227.099,392.158,227.675 M392.458,320.972
		c-0.426,0.269-0.875,0.539-1.316,0.81c0.174,0.112,0.35,0.225,0.513,0.341C391.924,321.743,392.191,321.36,392.458,320.972
		 M380.944,291.278c1.928-14.971,3.855-29.936,5.783-44.899c-1.928,14.963-3.854,29.928-5.783,44.897V291.278z M112.357,298.436
		l0.765-6.271l0.457-3.742c-0.957,3.389-1.912,6.78-2.866,10.169C111.261,298.54,111.811,298.488,112.357,298.436 M318.936,311.226
		c-2.494,1.552-4.842,2.603-7.032,3.157c4.237,0.168,8.452,0.348,12.598,0.545C322.249,314.302,320.344,313.052,318.936,311.226
		 M298.298,283.096c0.543-0.292,1.08-0.563,1.607-0.803c-0.297-1.238-0.596-2.48-0.893-3.719L298.298,283.096z M303.513,314.061
		l0.9,0.034c-0.342-0.135-0.677-0.286-1.002-0.458L303.513,314.061z M259.207,246.729c-2.873,17.867-5.745,35.748-8.617,53.631
		c1.505-0.926,2.944-1.69,4.321-2.3l8.147-50.714l2.453-15.251c2.657,2.599,5.362,5.251,8.1,7.944
		c-2.974,18.816-5.946,37.641-8.919,56.471c0.519,0.104,1.027,0.234,1.516,0.41c0.473-0.272,0.957-0.545,1.449-0.813
		c0.391-0.211,0.761-0.396,1.143-0.596c2.916-18.459,5.828-36.916,8.743-55.36c0.078-0.496,0.157-0.992,0.235-1.488
		c-5.112-5.028-10.117-9.932-14.925-14.621L259.207,246.729z M344.147,224.579c-2.784,20.102-5.568,40.219-8.353,60.335
		c0.013,0.032,0.029,0.06,0.042,0.089c1.441-0.681,2.809-1.233,4.116-1.674l0.019-0.128c2.308-0.749,4.413-1.124,6.336-1.124
		c0.052,0,0.099,0.008,0.148,0.008c0.074,0,0.151-0.008,0.225-0.008c2.22,0,4.221,0.527,5.924,1.515
		c1.39,0.806,2.568,1.931,3.508,3.333h0.001l5.654-44.402c-5.632-5.77-11.215-11.457-16.608-16.92L344.147,224.579z
		 M357.657,243.896l-4.208,33.058c-2.181-0.898-4.586-1.379-7.142-1.379c-1.712,0-3.496,0.224-5.349,0.632l3.73-26.954l2.253-16.283
		C350.427,236.511,354.012,240.168,357.657,243.896 M356.516,287.524c-0.124-0.211-0.269-0.398-0.402-0.6
		C356.247,287.126,356.392,287.313,356.516,287.524"/>
	<path fill="#FFFFFF" d="M295.927,284.508c0.808-0.527,1.599-0.995,2.37-1.412l0.715-4.521c0.297,1.238,0.597,2.48,0.894,3.719
		c0.676-0.307,1.339-0.571,1.989-0.788c-1.104-4.599-2.207-9.201-3.312-13.797C297.699,273.305,296.813,278.908,295.927,284.508
		 M487.924,237.688c-22.783-3.609-45.919-6.722-68.788-9.266c-30.258-3.425-77.717-6.605-77.717-6.605
		c-7.219-0.424-14.557-0.805-21.829-1.126l-1.937-0.084l-0.259,1.917l-3.819,28.104c-2.606-9.669-5.213-19.331-7.816-28.986
		l-0.411-1.514l-1.567-0.051c-13.282-0.448-26.789-0.718-40.16-0.811v-0.005l-2.114-0.011l-3.601-0.023l0.015,0.013
		c-1.499-0.004-2.995-0.011-4.491-0.011c-11.402,0-22.939,0.132-34.287,0.392l-1.589,0.038v-0.004l-1.019,0.026l-2.491,0.058
		l0.009,0.009c-7.248,0.19-14.551,0.434-21.727,0.726l-1.714,0.07l-0.288,1.691l-4.898,28.783c-2.243-9.401-4.487-18.797-6.73-28.19
		l-0.41-1.715l-1.761,0.089c-13.426,0.689-27.071,1.575-40.553,2.633l-39.917,3.671l-4.681,0.495l0.005,0.005l-2.369,0.261
		c-7.509,0.828-15.088,1.723-22.531,2.655l-1.512,0.193l-0.303,1.495l-0.748,3.718l-5.882,29.215
		c-0.418,0.057-0.837,0.11-1.256,0.167c2.13-10.52,4.261-21.031,6.393-31.54l0.587-2.904l-2.938,0.379
		c-13.823,1.791-27.849,3.806-41.686,5.995l-4.427,0.699l3.35,2.979c4.981,4.433,9.958,8.883,14.804,13.237
		c-5.265,23.516-10.526,47.057-15.786,70.627l-0.682,3.043l3.081-0.488c7.608-1.204,15.33-2.367,22.948-3.451l1.451-0.209l0.32-1.43
		c2.463-11.064,4.923-22.119,7.386-33.172c0.419-0.058,0.838-0.112,1.255-0.17c-2.333,10.529-4.666,21.069-6.998,31.61l-0.658,2.979
		l3.021-0.421c7.557-1.048,15.292-2.059,22.99-3.003l1.51-0.186l0.31-1.488c6.101-29.37,12.206-58.7,18.311-87.991l0.5-2.398
		l3.027,2.77c4.219,3.863,8.44,7.743,12.666,11.646c-9.524,24.259-19.198,49.014-28.767,73.601l-1.275,3.282l3.497-0.407
		c7.145-0.827,14.464-1.623,21.75-2.363l1.299-0.132l0.467-1.219l2.521-6.593c1.538-0.149,3.074-0.298,4.612-0.446l-0.247,4.731
		l-0.02,0.369l-0.127,2.452l2.444-0.231c6.36-0.596,12.823-1.161,19.206-1.678l1.951-0.158l-0.001-1.957l-0.03-84.481
		c5.162,4.781,10.304,9.569,15.301,14.247c-4.414,23.097-8.826,46.215-13.238,69.348l-0.518,2.725l2.763-0.214
		c7.694-0.588,15.465-1.123,23.099-1.589l1.644-0.103l0.311-1.617l5.781-30.201c2.03,9.775,4.061,19.557,6.093,29.344l0.371,1.777
		l1.813-0.091c7.246-0.367,14.634-0.686,21.962-0.945l1.721-0.06l0.291-1.698c4.95-28.658,9.902-57.292,14.854-85.9l0.68,0.652
		c5.413,5.201,10.776,10.379,15.95,15.401c-3.907,22.81-7.812,45.63-11.721,68.468l-0.433,2.529l2.564-0.05
		c5.295-0.106,10.694-0.18,16.116-0.227l1.994-2.129c-6.051,0.046-12.102,0.114-18.153,0.233
		c3.972-23.203,7.941-46.393,11.912-69.565c-5.588-5.429-11.175-10.825-16.761-16.189c13.979-0.321,27.963-0.441,41.948-0.371
		c-4.316,26.833-8.631,53.69-12.946,80.561c0.817-0.566,1.618-1.088,2.399-1.567c2.872-17.886,5.746-35.766,8.617-53.635
		l3.647-22.683c4.808,4.688,9.813,9.591,14.924,14.619c-2.993,18.94-5.983,37.893-8.976,56.848c0.795-0.417,1.57-0.802,2.327-1.157
		c2.971-18.818,5.943-37.633,8.912-56.436c-5.63-5.543-11.257-11.057-16.884-16.538c13.518,0.088,27.039,0.36,40.553,0.813
		c3.518,13.031,7.036,26.073,10.554,39.13c1.743-12.841,3.488-25.68,5.23-38.516c7.537,0.333,15.064,0.724,22.597,1.171
		c-2.684,19.366-5.364,38.75-8.047,58.131c0.006,0.008,0.015,0.016,0.022,0.021c0.628,0.742,1.253,1.67,1.729,2.781
		c2.784-20.115,5.567-40.235,8.351-60.336l1.013,1.024c5.395,5.463,10.978,11.15,16.606,16.92l-5.653,44.402
		c0.135,0.201,0.28,0.389,0.404,0.6c0.607,1.045,1.016,2.127,1.245,3.232c2.081-16.33,4.16-32.659,6.239-48.981
		c-5.775-5.921-11.554-11.809-17.333-17.663c23.424,1.464,46.823,3.476,70.177,6.042c-0.589,6.344-1.176,12.687-1.765,19.033
		c-9.443-1.027-18.896-1.964-28.353-2.809c-2.025,15.718-4.051,31.441-6.075,47.167c1.924,0.164,3.851,0.331,5.777,0.505
		c1.438-10.954,2.874-21.906,4.312-32.854c7.588,0.699,15.171,1.456,22.747,2.271c-2.158,17.21-4.316,34.423-6.477,51.642
		c-6.921-0.715-13.845-1.364-20.773-1.98c0.003,0.02,0.011,0.042,0.015,0.062c0.109,0.596,0.186,1.299,0.181,2.077
		c6.803,0.605,13.611,1.256,20.359,1.952l2.064,0.214l0.258-2.06l2.589-20.645l3.889-30.999l0.271-2.142l-2.147-0.23
		c-7.587-0.814-15.252-1.581-22.779-2.273l-2.031-0.187l-0.267,2.023l-4.049,30.839l-1.553-0.14l3.802-29.511l1.73-13.437
		c8.766,0.795,17.596,1.677,26.281,2.62l2.14,0.234l0.201-2.146l1.159-12.486l0.242-2.621c4.819,5.017,9.76,10.183,14.739,15.418
		l-7.808,67.444l-0.243,2.104l2.104,0.246c17.212,2.019,34.62,4.368,51.74,6.981l2.179,0.334l0.249-2.191l1.032-9.134l1.088-9.621
		l0.229-2.022l-2.013-0.312c-8.834-1.36-17.78-2.659-26.625-3.862l1.044-10.027c5.538,0.758,11.214,1.567,16.901,2.408l2.185,0.326
		l0.236-2.198l1.959-18.498l0.216-2.02l-2.006-0.299c-5.596-0.84-11.305-1.662-16.996-2.448l0.993-10.038
		c8.706,1.216,17.442,2.512,26.005,3.859l2.266,0.356l0.179-2.287l0.099-1.266l1.362-17.583l0.148-1.954L487.924,237.688z
		 M70.932,318.363c-7.682,0.943-15.357,1.944-23.025,3.011c2.552-11.532,5.102-23.06,7.655-34.578
		c-1.91,0.257-3.821,0.514-5.732,0.776c-2.568,11.532-5.139,23.069-7.707,34.613c-7.667,1.092-15.326,2.243-22.979,3.455
		c5.35-23.974,10.7-47.919,16.056-71.834c-5.248-4.718-10.493-9.411-15.735-14.076c13.854-2.189,27.73-4.184,41.627-5.983
		c-2.328,11.479-4.656,22.963-6.981,34.455c1.899-0.258,3.8-0.507,5.702-0.756c2.31-11.477,4.621-22.954,6.932-34.421
		c7.495-0.941,14.995-1.825,22.501-2.654C83.137,259.665,77.033,288.996,70.932,318.363 M113.468,313.757
		c0.131-2.518,0.261-5.035,0.393-7.552c-2.791,0.262-5.58,0.53-8.369,0.805c-0.997,2.606-1.993,5.211-2.988,7.817
		c-7.264,0.736-14.526,1.524-21.782,2.367c9.757-25.077,19.521-50.06,29.294-74.945c-4.582-4.235-9.161-8.446-13.738-12.637
		c12.12-1.278,24.254-2.411,36.396-3.39c0.009,28.617,0.02,57.238,0.029,85.854C126.29,312.596,119.876,313.156,113.468,313.757
		 M200.097,308.157c-7.331,0.259-14.662,0.575-21.99,0.944c-2.753-13.257-5.505-26.505-8.256-39.747
		c-2.594,13.54-5.187,27.087-7.779,40.639c-7.714,0.471-15.425,1.001-23.13,1.592c4.482-23.518,8.967-47.015,13.455-70.493
		c-5.421-5.079-10.843-10.125-16.26-15.146c13.49-1.06,26.988-1.936,40.495-2.629c3.047,12.756,6.095,25.521,9.144,38.296
		c2.213-13.013,4.425-26.02,6.639-39.023c7.534-0.307,15.071-0.557,22.609-0.75C210.047,250.587,205.072,279.358,200.097,308.157
		 M486.132,258.631c-9.399-1.479-18.809-2.868-28.227-4.168c-0.473,4.754-0.943,9.507-1.411,14.262
		c6.333,0.866,12.664,1.774,18.989,2.726c-0.654,6.164-1.309,12.328-1.964,18.496c-6.359-0.943-12.725-1.85-19.093-2.713
		c-0.494,4.751-0.989,9.503-1.482,14.256c9.551,1.283,19.089,2.661,28.621,4.13c-0.708,6.251-1.411,12.502-2.12,18.755
		c-17.238-2.636-34.514-4.966-51.814-6.993c2.642-22.816,5.282-45.627,7.922-68.431c-5.909-6.217-11.821-12.398-17.738-18.545
		c23.313,2.576,46.578,5.701,69.777,9.376C487.104,246.066,486.619,252.348,486.132,258.631 M114.257,300.388
		c1.584-13.013,3.17-26.022,4.754-39.03c-3.728,13.199-7.455,26.414-11.181,39.643C109.974,300.791,112.114,300.588,114.257,300.388
		 M113.123,292.165l-0.765,6.271c-0.547,0.053-1.097,0.104-1.645,0.156c0.954-3.391,1.91-6.78,2.867-10.169L113.123,292.165z"/>
	<path fill="#870337" d="M85.318,278.772c-0.746,3.585-1.493,7.169-2.239,10.758c0.147,1.294,0.308,2.563,0.472,3.821
		c0.885-2.267,1.765-4.529,2.653-6.802C85.864,283.99,85.567,281.398,85.318,278.772 M404.912,355.198
		c0.002,0.002,0.004,0.006,0.006,0.008c-1.087-1.188-2.522-2.352-4.388-3.453c4.126-8.599,7.82-18.588,10.671-30.153l-2.19-0.228
		c-2.097,7.389-4.739,14.952-8.054,22.408c-0.302-2.618-1.618-5.898-5.746-8.396c0.644-1.396,0.969-2.926,0.948-4.551
		c-0.025-1.58-0.332-3.258-1.141-4.857c1.3-1.777,2.588-3.65,3.848-5.629c-3.473-0.34-6.955-0.67-10.439-0.985
		c-0.344,0.201-0.702,0.4-1.057,0.601c0.003,0.002,0.006,0.004,0.01,0.004c-0.58-0.204-1.186-0.396-1.839-0.567
		c1.073-2.402,0.997-4.663,0.712-6.207c-0.004-0.02-0.01-0.042-0.016-0.062c6.93,0.618,13.854,1.266,20.775,1.98
		c2.159-17.219,4.316-34.432,6.476-51.643c-7.576-0.814-15.16-1.571-22.747-2.271c-1.438,10.947-2.875,21.901-4.312,32.854
		c-1.927-0.172-3.853-0.341-5.777-0.505c2.025-15.727,4.05-31.449,6.075-47.167c9.456,0.846,18.908,1.781,28.353,2.81
		c0.589-6.347,1.175-12.689,1.765-19.034c-23.354-2.566-46.754-4.578-70.178-6.042c5.78,5.854,11.558,11.74,17.335,17.663
		c-2.081,16.321-4.16,32.649-6.24,48.981c-0.23-1.107-0.639-2.189-1.246-3.23c-2.049-3.512-5.541-5.449-9.835-5.449
		c-0.073,0-0.15,0.008-0.225,0.01c-0.049-0.002-0.097-0.01-0.148-0.01c-1.924,0-4.027,0.371-6.336,1.115l-0.019,0.137
		c-0.595,0.201-1.206,0.431-1.829,0.681c-0.108,0.044-0.217,0.087-0.328,0.133c-0.641,0.263-1.289,0.545-1.959,0.86
		c-0.013-0.029-0.029-0.057-0.042-0.089c-0.004-0.01-0.009-0.018-0.013-0.027c-0.476-1.1-1.094-2.018-1.717-2.752
		c-0.007-0.008-0.016-0.016-0.021-0.023c2.684-19.382,5.364-38.766,8.047-58.131c-7.531-0.447-15.061-0.837-22.597-1.171
		c-1.741,12.835-3.487,25.674-5.23,38.516c-3.519-13.056-7.036-26.099-10.555-39.129c-13.512-0.455-27.034-0.726-40.552-0.813
		c5.628,5.479,11.256,10.994,16.884,16.537c-2.969,18.802-5.94,37.617-8.911,56.436c-1.119,0.524-2.268,1.096-3.473,1.753
		c-0.492,0.269-0.976,0.541-1.449,0.815c-0.25-0.091-0.506-0.17-0.765-0.237c-0.24-0.066-0.485-0.122-0.733-0.171
		c-0.006-0.002-0.012-0.004-0.017-0.007c-0.002,0-0.004,0-0.007,0c-0.358-0.07-0.721-0.128-1.094-0.167
		c-0.025-0.002-0.051-0.006-0.077-0.01c-0.385-0.036-0.777-0.06-1.179-0.06c-0.283,0-0.571,0.01-0.859,0.027
		c-0.167,0.012-0.336,0.032-0.504,0.05c-0.124,0.012-0.248,0.018-0.373,0.033c-0.229,0.029-0.459,0.067-0.692,0.108
		c-0.067,0.012-0.136,0.018-0.205,0.032c-0.274,0.051-0.553,0.112-0.832,0.178c-0.027,0.008-0.056,0.01-0.082,0.018
		c-0.303,0.071-0.607,0.153-0.915,0.245c-0.007,0.004-0.015,0.004-0.021,0.006c-2.899,0.853-6.099,2.497-9.654,4.955
		c-0.003,0.002-0.006,0.004-0.009,0.006c4.316-26.871,8.632-53.729,12.946-80.561c-13.984-0.072-27.967,0.05-41.947,0.37
		c5.586,5.365,11.174,10.761,16.761,16.19c-3.971,23.174-7.94,46.362-11.912,69.565c6.052-0.116,12.102-0.188,18.152-0.233
		l-1.992,2.129l-3.686,3.938l-7.37,7.868c-1.419,0.137-2.755,0.207-3.977,0.207c-6.634,0-10.195-1.925-10.584-5.728
		c-0.244-2.387,0.973-4.182,2.894-5.534l0.196-1.138l0.099-0.578c-4.905-1.254-8.1-3.007-9.509-5.23
		c-0.467-0.736-0.727-1.521-0.791-2.348c-0.276,1.604-0.553,3.203-0.83,4.807c1.412,1.911,3.627,3.484,6.708,4.736
		c-1.333,2.103-1.472,4.188-1.321,5.646c0.333,3.262,2.543,8.691,13.482,8.887c-0.013,0.062-0.015,0.119-0.026,0.18l-0.017,0.021
		c-0.492,2.576,0.29,4.628,0.883,5.728c1.707,3.145,4.88,4.881,8.938,4.881c3.548,0,7.989-1.312,13.191-3.892
		c1.503-0.745,2.905-1.519,4.167-2.303c1.807-0.825,3.723-1.919,5.724-3.258c5.474,11.61,11.108,24.009,14.939,32.519
		c-41.65-8.922-80.184-32.428-104.693-50.122l-0.631,2.446l-0.223,1.173c26.28,18.956,68.295,44.29,113.555,51.935
		c-3.47-7.765-11.257-25.085-18.643-40.718c0.629,0.085,1.272,0.14,1.944,0.14c4.167,0,9.322-1.662,15.32-4.938
		c1.67-0.912,3.216-1.854,4.62-2.81c1.548,0.854,3.297,1.297,5.186,1.297c3.516,0,7.533-1.567,11.981-4.665
		c0.975,0.785,2.059,1.372,3.23,1.761c-0.004,0-0.007-0.002-0.01-0.002c9.834,15.64,20.435,33.636,28.161,49.773
		c10.156-2.007,20.237-5.329,30.113-10.212c0.069-0.034,0.138-0.063,0.206-0.097c0.122,0.067,0.251,0.136,0.38,0.201
		c0.322,0.172,0.652,0.34,1.009,0.499c-0.79,3.244-0.646,8.7,6.675,13.263c-0.138,0.253-0.27,0.518-0.393,0.786
		c-1.233,2.727-2.168,7.605,2.778,12.952c-0.28,0.317-0.543,0.655-0.791,1.013c-0.491,0.717-0.987,1.625-1.352,2.697
		c0.002-0.006,0.003-0.012,0.004-0.017c0.016-0.043,0.029-0.089,0.044-0.13c-7.766,6.942-16.856,12.937-27.501,17.515
		c0,0-84.706,41.722-193.436-43.407c0,0,102.408,94.401,205.234,41.301c0,0,6.51-2.715,15.275-10.065c0-0.002,0-0.002-0.001-0.004
		c0-0.002-0.001-0.004-0.001-0.006c0.354,2.023,1.307,4.313,3.229,6.831c-0.11,0.188-0.214,0.388-0.316,0.591
		c-0.023,0.047-0.047,0.097-0.071,0.146c-0.203,0.424-0.389,0.884-0.543,1.376c-0.014,0.039-0.025,0.079-0.036,0.118
		c-0.154,0.514-0.274,1.061-0.349,1.643c-0.005,0.027-0.008,0.058-0.011,0.085c-0.071,0.599-0.095,1.232-0.057,1.901
		c0,0.021,0.003,0.048,0.005,0.069c0.022,0.338,0.056,0.681,0.111,1.034c-35.393,35.5-96.903,51.012-202.242-23.527
		c0,0,97.348,86.394,176.578,48.465c0,0,16.437,45.094-64.898,54.786c0,0-77.123,2.531-144.129-82.6
		c0,0-29.019-29.761-44.599-79.509c-1.602,0.172-3.201,0.348-4.795,0.523c5.65,21.156,12.308,32.628,12.308,32.628
		c-23.601,12.642,20.649,32.87,20.649,32.87c2.528,3.794,15.593,18.123,15.593,18.123c-97.286-13.511-106.35-49.651-96.99-77.447
		c-2.295,0.332-4.594,0.668-6.896,1.01c-2.717,8.798-3.531,18.361-0.507,27.934c8.455,26.745,44.239,44.595,106.369,53.061
		c63.083,75.28,133.314,77.458,141.153,77.458c0.554,0,0.837-0.01,0.837-0.01l0.18-0.006l0.167-0.02
		c27.636-3.293,47.437-11.02,58.856-22.963c2.612-2.262,5.204-4.938,7.713-7.96l0.068,0.051c0.098-0.112,2.425-2.815,5.5-7.491
		c3.305-4.87,6.271-10.077,8.916-15.285c0.92,3.165,2.712,6.934,5.782,11.428c5.834,8.535,11.612,12.863,17.177,12.863
		c0.071,0,0.141-0.006,0.21-0.008c0.056,0,0.11,0.008,0.163,0.008c2.11,0,4.091-0.628,5.884-1.866
		c2.493-1.718,5.763-5.388,4.326-12.386c2.004-0.312,3.845-1.202,5.391-2.611c2.905-2.646,5.176-7.077,2.17-14.088
		c1.997-0.557,3.739-1.685,5.133-3.343c2.203-2.622,4.716-7.917-0.634-15.714c0.205-0.251,0.404-0.514,0.595-0.79
		c2.479-3.598,3.607-9.029-2.508-16.001c2.453-1.378,3.74-3.39,4.386-4.821c1.925-4.269,1.92-10.237-6.736-16.37
		c1.836-1.682,2.666-3.67,3.04-5.142c0.555-2.178,0.61-4.69-0.571-7.216c7.634-17.691,11.623-33.838,13.459-42.867l0.708-6.11
		c-0.743-0.646-1.488-1.287-2.247-1.911C418.874,307.299,415.781,329.443,404.912,355.198 M371.198,388.938
		c-0.004-0.089-0.005-0.178-0.007-0.271v-0.006c0.002,0.093,0.003,0.188,0.008,0.284
		C371.198,388.944,371.198,388.94,371.198,388.938 M371.238,389.491c0-0.004,0-0.008-0.001-0.012
		c0.006,0.069,0.017,0.141,0.023,0.212C371.253,389.624,371.245,389.557,371.238,389.491 M371.423,386.283
		c0.001-0.002,0.001-0.006,0.002-0.01c0.012-0.054,0.023-0.104,0.038-0.156C371.448,386.173,371.436,386.226,371.423,386.283
		 M96.909,363.163c0.03-0.792,1.558-2.608,6.739-4.527c3.034,5.925,6.308,11.702,9.796,17.283
		C102.793,370.674,96.808,365.724,96.909,363.163 M392.458,320.972c-0.267,0.389-0.535,0.77-0.804,1.15
		c-0.163-0.116-0.339-0.229-0.513-0.343C391.583,321.511,392.032,321.24,392.458,320.972 M295.926,284.506
		c0.887-5.6,1.772-11.201,2.657-16.798c1.105,4.594,2.208,9.198,3.313,13.797c0.103-0.036,0.2-0.058,0.301-0.091
		c-0.415,0.132-0.835,0.272-1.261,0.44c-0.009,0.006-0.018,0.008-0.027,0.012c-0.302,0.12-0.608,0.251-0.916,0.389
		c-0.029,0.014-0.058,0.025-0.087,0.038c-0.001,0-0.002,0.002-0.003,0.002c-0.524,0.234-1.058,0.507-1.598,0.799
		c-0.002,0-0.004,0-0.007,0.002c-0.004,0.002-0.008,0.004-0.012,0.006c-0.381,0.206-0.765,0.423-1.155,0.656
		c-0.003,0.002-0.007,0.004-0.012,0.006c-0.383,0.229-0.772,0.472-1.166,0.727C295.944,284.496,295.936,284.5,295.926,284.506v0.002
		c-0.698,0.454-1.413,0.962-2.14,1.499C294.513,285.47,295.229,284.962,295.926,284.506 M334.165,362.085
		c-1.206-4.836-15.306-28.24-27.111-47.329h-0.005c0.455,0.056,0.916,0.091,1.389,0.091c3.114,0,6.632-1.216,10.498-3.621
		c1.413,1.834,3.328,3.084,5.59,3.708c-0.005,0-0.011,0-0.015-0.002c-0.269-0.016-0.533-0.027-0.803-0.039
		c14.436,20.274,30.264,42.134,30.264,42.134C344.28,361.239,334.165,362.085,334.165,362.085 M355.381,352.53
		c-4.779-6.489-16.188-22.015-27.158-37.141c-0.089,0.002-0.18,0.008-0.269,0.008c1.23,0,2.553-0.154,3.948-0.458
		c1.378,2.563,4.313,5.598,10.53,5.86l0.066-0.046c0.021,0.137,0.04,0.272,0.065,0.413c0.533,2.862,2.469,7.293,9.215,8.93
		c-0.04,0.407-0.057,0.817-0.051,1.234c0.036,2.442,0.879,6.401,5.388,9.221c-0.253,0.823-0.407,1.688-0.455,2.586
		c-0.114,2.032,0.266,4.946,2.573,7.607C357.956,351.363,356.674,351.964,355.381,352.53 M363.174,424.806
		c-0.06,0.166-0.118,0.33-0.177,0.498c-6.28,17.605-16.188,29.073-16.188,29.073c10.536-15.594,2.528-28.238,2.528-28.238
		c6.741-2.106,16.436-10.113,16.436-10.113c-0.737,3.064-1.624,5.995-2.599,8.776C363.175,424.804,363.174,424.804,363.174,424.806
		 M406.687,385.466c-0.883,1.957-2.938,4.286-7.706,4.286c-0.243,0-0.503-0.02-0.757-0.031c7.681,6.112,10.011,11.495,6.895,16.019
		c-0.684,0.991-1.548,1.747-2.566,2.261c4.924,5.633,5.884,10.32,2.81,13.973c-1.391,1.652-3.229,2.49-5.464,2.49
		c-0.952,0-1.977-0.158-3.063-0.463c4.703,6.656,5.231,11.713,1.552,15.065c-1.327,1.206-2.896,1.82-4.663,1.82
		c-1.069,0-2.226-0.245-3.447-0.707c2.969,6.415,2.56,10.972-1.239,13.59c-1.192,0.823-2.497,1.242-3.882,1.242
		c-4.271,0-9.203-3.919-14.269-11.329c-8.672-12.691-6.345-18.218-2.866-20.619c1.197-0.825,2.504-1.244,3.89-1.244
		c0.139,0,0.277,0.017,0.416,0.024c-2.328-5.28-0.939-8.482,1.143-10.38c1.328-1.212,2.898-1.826,4.67-1.826
		c0.009,0,0.02,0.002,0.028,0.002c-4.026-5.667-3.066-9.428-1.095-11.768c0.235-0.28,0.487-0.527,0.747-0.758
		c-5.552-5.779-5-9.955-3.151-12.643c0.896-1.301,2.113-2.193,3.578-2.664c-6.421-4.683-6.605-8.877-5.262-11.846
		c0.509-1.122,1.406-2.365,2.979-3.223c-8.768-3.629-9.892-8.123-9.027-11.528c0.229-0.908,0.657-1.876,1.393-2.757
		c-7.611-2.031-9.283-5.865-9.102-9.115c0.094-1.702,0.723-3.159,1.848-4.359c-5.309-1.781-6.735-4.917-6.773-7.696
		c-0.023-1.528,0.395-2.901,1.23-4.096c-6.163-0.248-9.678-2.487-10.455-6.665c-0.19-1.035-0.195-2.295,0.286-3.631
		c-1.044,0.136-2.032,0.213-2.952,0.213c-5.776,0-7.967-2.78-8.785-5.111c-0.188-0.539-0.306-1.064-0.366-1.582
		c-2.335,0.835-4.429,1.264-6.216,1.264c-3.096,0-5.382-1.225-6.79-3.637c-0.429-0.73-0.703-1.485-0.854-2.253
		c-4.595,3.499-8.66,5.339-11.868,5.339c-2.233,0-4.095-0.854-5.532-2.537c-0.279-0.328-0.512-0.663-0.716-1.003
		c-4.828,3.866-9.098,5.894-12.449,5.894c-2.037,0-3.763-0.73-5.146-2.154c-1.764,1.376-3.875,2.746-6.35,4.097
		c-5.475,2.993-10.061,4.51-13.633,4.51c-1.188,0-2.264-0.182-3.223-0.531c-0.704,0.593-1.434,1.185-2.223,1.783
		c-2.923,2.217-5.657,3.896-8.134,5.007c-1.374,0.869-2.798,1.641-4.12,2.295c-4.716,2.337-8.63,3.521-11.63,3.521
		c-2.783,0-4.747-1.019-5.838-3.032c-0.695-1.289-0.818-2.651-0.372-4.058c1.119-3.504,5.57-6.563,9.574-8.686
		c2.179-4.174,6.672-7.98,9.296-9.969c5.837-4.425,10.68-6.671,14.396-6.671c1.543,0,2.899,0.385,4.06,1.143
		c0.923-0.58,1.893-1.157,2.943-1.729c5.545-3.024,10.134-4.559,13.64-4.559c1.964,0,3.596,0.483,4.897,1.425
		c1.489-1.678,3.01-3.111,4.161-4.122c5.823-5.138,10.71-7.744,14.525-7.744c2.19,0,4.042,0.852,5.507,2.527
		c0.335,0.386,0.604,0.792,0.843,1.209c4.947-3.914,9.141-5.896,12.486-5.896c2.228,0,4.102,0.868,5.566,2.582
		c1.478,1.737,1.98,3.799,1.546,6.115c5.593-3.274,10.22-4.938,13.748-4.938c3.075,0,5.36,1.246,6.789,3.698
		c1.252,2.143,1.203,4.288,0.397,6.324c2.757-0.721,5.195-1.092,7.271-1.092c4.564,0,7.49,1.737,8.693,5.161
		c0.658,1.863,0.813,4.608-1.744,7.59c1.142-0.102,2.234-0.164,3.241-0.164c8.435,0,10.888,3.656,11.46,6.721
		c0.398,2.156,0.012,5.285-3.991,8.05c9.105,0.665,13.756,3.685,13.839,8.999c0.025,1.951-0.653,3.643-2.015,5.035
		c-0.287,0.294-0.613,0.572-0.96,0.839c5.424,1.712,8.064,4.642,7.839,8.772c-0.16,2.904-1.882,5.094-4.978,6.5
		c9.034,3.036,12.933,7.229,11.59,12.494c-0.571,2.257-2.326,4.873-7.181,5.635C405.343,375.035,409.073,380.178,406.687,385.466
		 M416.331,289.188l-0.757,6.029l-1.694,13.525C414.942,302.611,415.776,296.102,416.331,289.188 M173.014,217.082l-0.355,0.421
		c1.221-0.064,2.447-0.137,3.665-0.2l1.761-0.09l0.149-0.009c-0.647-5.83-1.106-11.95-1.259-18.214l12.643-10.536
		c0,0,0.583,12.829,2.608,28.116c0.884-0.035,1.781-0.069,2.672-0.105c-0.85-6.238-1.491-13.246-0.644-16.211
		c0,0,8.698-7.817,20.915-17.947c-0.855-11.126-0.945-22.613,0.012-34.24c-3.012,1.516-5.077,1.869-5.077,1.869
		c-8.008-3.372-14.536-11.192-14.536-11.192c15.437,8.103,34.475-24.826,34.475-24.826l4.887,7.332
		c-0.587,2.027-1.244,3.898-1.941,5.652c-0.208,2.543-1.188,17.37,2.129,39.45c0.58-0.445,1.16-0.889,1.743-1.332
		c-0.635-11.753-1.721-35.932-0.465-44.415l-5.057-8.43c21.492-38.35,4.637-55.207,4.637-55.207
		c16.855,4.635,28.233,16.435,28.233,16.435c6.563,18.436-3.318,41.26-8.87,51.837c-0.189,0.359-0.372,0.705-0.549,1.034
		c-0.001,0.002-0.002,0.005-0.004,0.008c-0.54,1.003-1.025,1.865-1.436,2.58h0.003c-0.842,1.464-1.364,2.278-1.364,2.278
		s-0.768,7.179-0.767,17.608v0.012c0,1.817,0.023,3.729,0.078,5.723c0.706-0.49,1.408-0.971,2.109-1.449
		c0.931-0.636,1.853-1.25,2.771-1.861c-0.002-0.001-0.002-0.002-0.004-0.003c1.431-0.949,2.847-1.871,4.24-2.753l14.109-10.628
		l2.089-1.573l16.252-12.241c0,0-1.827,7.062,0.894,22.203c0.002,0.01,0.005,0.02,0.007,0.03c0.734,4.079,1.795,8.737,3.314,14.01
		c0,0-0.296,0.19-0.844,0.546c-0.145,0.092-0.294,0.19-0.471,0.305c-4.739,3.072-21.698,14.083-40.304,26.365
		c0.246,0.977,0.507,1.951,0.781,2.916c5.466-3.61,10.887-7.193,16.053-10.604c0.116-0.077,0.229-0.151,0.345-0.228
		c10.327-6.817,19.605-12.937,26.136-17.224c0.706-0.465,1.39-0.913,2.028-1.333c-0.236-0.742-0.468-1.511-0.697-2.294
		c-0.089-0.306-0.18-0.609-0.268-0.92c-0.175-0.617-0.346-1.25-0.515-1.893c-0.038-0.146-0.075-0.296-0.114-0.442
		c-0.146-0.574-0.294-1.157-0.435-1.751c-0.028-0.111-0.054-0.221-0.081-0.334c-0.349-1.474-0.679-3.003-0.983-4.591
		c-2.991-15.553-3.636-36.575,3.16-62.688l11.38-8.852c0,0-7.586,45.515,7.583,96.508l-9.69,7.163c0,0-2.169-2.857-4.832-8.435
		l-5.206,3.067l-45.591,26.861l-9.169,6.185c0.319,0.953,0.654,1.914,0.993,2.879c-0.057,0.03-0.121,0.054-0.178,0.086
		c-0.338,0.186-0.663,0.388-0.966,0.604c-0.085,0.06-0.171,0.118-0.252,0.181c-0.344,0.263-0.671,0.54-0.972,0.836
		c-0.017,0.015-0.036,0.029-0.052,0.044c-0.327,0.326-0.628,0.667-0.908,1.021c-0.045,0.057-0.085,0.117-0.13,0.173
		c-0.22,0.291-0.43,0.587-0.623,0.888c-0.023,0.038-0.043,0.076-0.068,0.113c2.167-0.016,4.334-0.019,6.501-0.027
		c0.401-0.355,0.855-0.673,1.373-0.94c0.939-0.485,1.918-0.732,2.912-0.732c0.694,0,1.395,0.118,2.097,0.35
		c-0.409-1.598-0.496-3.032-0.222-4.275c0.359-1.619,1.304-2.899,2.809-3.809c1.026-0.62,2.125-0.934,3.268-0.934
		c0.734,0,1.483,0.133,2.243,0.386c-0.268-1.125-0.355-2.175-0.213-3.122c0.053-0.348,0.138-0.679,0.246-1l39.22-23.106
		c0.098,0.18,0.201,0.359,0.279,0.541c0.602,1.404,0.566,2.871-0.103,4.359c-0.759,1.694-2.6,3.7-7.016,3.813
		c2.787,2.25,4.366,4.388,4.79,6.476c0.312,1.539-0.034,3.013-1.027,4.388c-1.243,1.708-3.177,2.611-5.595,2.611
		c-0.563,0-1.165-0.063-1.785-0.158c1.611,2.117,2.437,4.039,2.499,5.803c0.057,1.601-0.54,3.037-1.775,4.267
		c-1.231,1.223-2.77,1.844-4.576,1.844c-1.004,0-2.095-0.216-3.246-0.597c0.722,1.532,1.128,2.925,1.238,4.193
		c1.489,0.032,2.985,0.057,4.471,0.093c-0.006-0.093-0.004-0.18-0.011-0.274c2.127-0.295,4.027-1.234,5.562-2.762
		c1.427-1.419,3.8-4.652,2.357-9.488c2.273-0.78,3.749-2.202,4.667-3.465c1.324-1.832,3.323-5.929-0.114-11.097
		c2.082-1.261,3.176-2.969,3.729-4.207c0.014-0.03,0.027-0.066,0.042-0.099l0.943,0.308l19.387,6.32l1.936,0.631l1.659-1.176
		l13.064-9.272l1.835-1.304l-0.142-2.246l-1.167-18.715c6.134-3.998,15.714-9.397,20.313-9.881l5.695-0.601l-2.473-5.167
		c-3.13-6.546-5.009-31.603-5.507-46.849l-0.119-3.701l-3.696-0.206c-3.188-0.179-10.087-2.265-18.718-5.642l-0.229-3.637
		l-0.162-2.615l-2.454-0.921l-12.41-4.658l-8.489-3.184l-0.646-0.15l-6.799,2.269l-11.379,8.849l-1.087,0.843l-0.346,1.33
		c-3.118,11.988-4.914,23.793-5.342,35.124l-14.958,11.133c-1.617-3.351-5.855-6.233-15.655-6.233c-0.329,0-0.671,0.007-1.012,0.013
		c5.94-11.83,14.727-34.196,8.027-53.017l-0.293-0.825l-0.605-0.627c-0.481-0.498-11.951-12.236-29.18-17.269
		c-0.061-0.019-0.122-0.036-0.183-0.054l-0.236-0.069c-0.158-0.046-0.315-0.092-0.475-0.137l-0.05,0.011l-0.083-0.018
		c-1.505-0.346-3.094-0.52-4.729-0.52c-1.693,0-3.439,0.186-5.191,0.552c-0.647,0.12-1.332,0.291-2.034,0.506
		c-1.103,0.324-1.797,0.608-1.925,0.699c-10.082,4.201-21.123,17.161-28.813,33.825c-9.677,20.971-11.159,41.481-3.664,50.1
		c2.905,4.309,8.988,11.732,18.075,14.974l0.954,0.341l1.003-0.15c0.042-0.007,0.101-0.015,0.177-0.029
		c-0.482,8.841-0.408,17.946,0.219,27.165c-2.809,2.344-5.652,4.745-8.49,7.174l-9.665-3.75l-2.145-0.831l-1.811,1.417
		l-14.394,11.271l-1.6,1.252l0.051,2.03C171.936,204.877,172.347,210.922,173.014,217.082 M252.166,210.314
		c-0.47-0.033-0.915-0.032-1.353-0.02c-0.204,0.008-0.401,0.023-0.598,0.041c-0.117,0.009-0.221,0.03-0.336,0.043
		c-0.603-2.043-0.881-3.165-0.881-3.165l9.197-5.545c0.041,0.166,0.089,0.336,0.131,0.501c0.002,0.007,0.004,0.016,0.006,0.021
		c0.037,0.15,0.079,0.302,0.118,0.452C253.889,203.625,252.166,210.314,252.166,210.314 M329.53,187.191l-16.856-4.636l9.27-7.585
		l19.388,5.057L329.53,187.191z M344.129,156.269l-0.907-14.391c5.146-0.192,22.157,5.289,22.157,5.289
		C357.374,148.01,344.129,156.269,344.129,156.269 M359.452,96.585c0,0,1.266,38.771,5.901,48.463
		c-2.294-0.997-22.634-5.725-21.915-6.012c0,0-3.17-30.753-4.122-48.191C339.316,90.845,351.865,96.163,359.452,96.585
		 M316.466,75.934l20.229,7.586l5.9,94.4l-19.807-5.479C322.788,172.441,305.933,124.398,316.466,75.934 M258.923,128.579
		c7.767,0,12.076,1.851,12.858,5.493l-14.783,11.005c-0.929,0.586-1.883,1.201-2.859,1.842c0.062-7.09,0.469-12.418,0.648-14.451
		c0.486-0.799,1.268-2.123,2.21-3.851C257.659,128.595,258.31,128.579,258.923,128.579 M197.893,89.819
		c10.213-22.132,26.15-36.54,35.599-32.179c9.446,4.359,8.824,25.835-1.392,47.967c-10.213,22.131-26.15,36.539-35.597,32.18
		C187.055,133.428,187.679,111.952,197.893,89.819 M193.409,188.455l6.322,2.529l-6.742,6.322L193.409,188.455z M394.085,255.461
		c0.119-0.765,0.238-1.536,0.354-2.316c-0.824-0.079-1.657-0.164-2.48-0.241l-0.3,2.327
		C392.462,255.307,393.276,255.386,394.085,255.461 M202.462,121.187c6.665,3.074,17.2-5.553,23.531-19.272
		c6.331-13.72,6.062-27.335-0.602-30.411c-6.666-3.076-17.201,5.554-23.531,19.273C195.53,104.494,195.799,118.109,202.462,121.187
		 M225.11,94.094l-12.079-10.66l13.196,6.599c0.347-1.039,0.52-1.563,0.53-1.594C226.367,90.253,225.823,92.151,225.11,94.094
		 M224.125,74.421c3.273,1.509,4.122,7.104,2.636,14.005l-14.645-7.407C216.311,75.717,220.944,72.952,224.125,74.421
		 M206.726,89.926c1.161-2.517,2.48-4.822,3.878-6.854c-8.901,21.341-0.249,23.011-0.249,23.011
		c6.328,1.141,10.299-3.089,12.517-6.827c-4.955,9.831-12.219,16.017-16.656,13.97C201.553,111.073,201.78,100.642,206.726,89.926
		 M88.895,195.619c-2.298,10.194-3.983,19.969-5.167,29.318c0.888-0.102,1.78-0.204,2.664-0.303
		c1.051-13.668,2.74-28.422,5.453-41.236c0,0,2.76,17.833,9.706,39.682l3.059-0.281c-6.973-21.67-9.848-39.653-9.903-40.019
		l-3.379-21.795l-4.573,21.575c-0.521,2.464-1.028,5.108-1.505,7.866c-1.461,6.292-4.784,20.77-7.799,35.233
		c1.729-0.203,3.438-0.398,5.158-0.595C85.738,209.537,88.895,195.619,88.895,195.619 M460.813,327.741
		c-1.024-0.144-2.052-0.286-3.079-0.428c3.421,15.383,6.299,31.902,8.339,49.521c0,0-10.239-28.02-30.284-52.392
		c-2.402-0.298-4.803-0.595-7.198-0.877c21.242,24.248,32.417,54.299,32.55,54.656l12.57,32.153l-4.756-34.008
		C466.951,359.06,464.132,342.82,460.813,327.741 M219.195,211.713c-2.113,1.445-4.13,2.835-6.034,4.155
		c0.265-0.008,0.527-0.016,0.791-0.022l2.493-0.067l1.002-0.027l0.41-0.008c0.621-0.412,1.25-0.828,1.892-1.253
		C219.561,213.57,219.376,212.644,219.195,211.713 M399.487,187.191c0,0,9.883,13.053,22.216,37.598
		c1.196,0.134,2.393,0.272,3.589,0.41c-12.813-25.933-23.228-39.804-23.715-40.45l-7.083-9.347l-0.185,11.726
		c-0.199,12.599-0.762,24.163-1.59,34.77c1.724,0.152,3.448,0.308,5.165,0.464C398.72,211.633,399.285,199.939,399.487,187.191
		 M247.738,195.976l-0.387,0.065c0,0-0.634-0.787-1.582-2.189c-1.375,0.913-2.748,1.826-4.119,2.737
		c0.269,0.948,0.545,1.904,0.829,2.864C244.221,198.302,245.974,197.143,247.738,195.976 M110.015,242.249
		c-9.771,24.885-19.537,49.868-29.293,74.945c7.256-0.843,14.517-1.631,21.781-2.367c0.997-2.606,1.992-5.211,2.988-7.817
		c2.791-0.276,5.579-0.543,8.37-0.805c-0.131,2.517-0.261,5.034-0.393,7.554c6.408-0.603,12.821-1.163,19.234-1.681
		c-0.01-28.617-0.019-57.237-0.028-85.856c-12.142,0.98-24.276,2.112-36.396,3.39C100.855,233.803,105.434,238.015,110.015,242.249
		 M114.256,300.388c-2.141,0.2-4.283,0.405-6.425,0.612c3.725-13.229,7.453-26.443,11.18-39.643
		C117.427,274.365,115.841,287.375,114.256,300.388 M42.123,322.186c2.567-11.546,5.137-23.083,7.706-34.611
		c1.912-0.265,3.821-0.521,5.733-0.776c-2.553,11.519-5.104,23.044-7.656,34.574c7.668-1.064,15.344-2.065,23.024-3.009
		c6.102-29.367,12.206-58.699,18.313-87.992c-7.505,0.828-15.005,1.713-22.5,2.653c-2.312,11.467-4.622,22.943-6.932,34.421
		c-1.902,0.248-3.803,0.5-5.703,0.756c2.326-11.49,4.654-22.977,6.982-34.456c-13.896,1.8-27.773,3.795-41.626,5.984
		c5.242,4.666,10.487,9.358,15.733,14.077c-5.354,23.915-10.706,47.86-16.055,71.833C26.797,324.429,34.457,323.279,42.123,322.186
		 M138.941,311.583c7.706-0.587,15.418-1.119,23.13-1.59c2.592-13.552,5.185-27.099,7.779-40.639
		c2.75,13.242,5.502,26.49,8.255,39.745c7.329-0.367,14.66-0.684,21.991-0.944c4.975-28.797,9.95-57.567,14.925-86.314
		c-7.537,0.192-15.074,0.442-22.608,0.749c-2.213,13.003-4.425,26.011-6.639,39.023c-3.047-12.774-6.095-25.54-9.143-38.296
		c-13.506,0.693-27.006,1.57-40.494,2.63c5.417,5.019,10.838,10.066,16.259,15.145C147.909,264.57,143.425,288.069,138.941,311.583
		 M486.133,258.631c0.487-6.282,0.972-12.565,1.46-18.848c-23.201-3.675-46.465-6.803-69.778-9.376
		c5.917,6.146,11.828,12.327,17.738,18.544c-2.639,22.804-5.28,45.616-7.922,68.431c17.301,2.027,34.575,4.357,51.814,6.993
		c0.708-6.253,1.412-12.504,2.12-18.755c-9.533-1.469-19.071-2.847-28.622-4.13c0.494-4.753,0.99-9.505,1.483-14.256
		c6.368,0.863,12.734,1.77,19.094,2.713c0.654-6.168,1.309-12.332,1.962-18.498c-6.323-0.949-12.655-1.856-18.989-2.724
		c0.471-4.754,0.94-9.508,1.411-14.261C467.324,255.765,476.732,257.152,486.133,258.631 M219.623,242.404
		c-0.044,0.149-0.088,0.301-0.129,0.457c-0.051,0.187-0.099,0.376-0.143,0.572c-0.079,0.355-0.154,0.719-0.217,1.106
		c-0.015,0.1-0.027,0.209-0.042,0.314c-0.05,0.355-0.095,0.722-0.13,1.104c-0.013,0.124-0.024,0.249-0.034,0.375
		c-0.037,0.488-0.068,0.989-0.081,1.519c0,0.013-0.001,0.025-0.002,0.036c0,0-1.209,0.564-2.534,1.839
		c-0.235,1.357-0.469,2.713-0.704,4.071c0.571-0.924,1.392-1.669,2.467-2.219c0.935-0.478,1.907-0.718,2.89-0.718
		c0.621,0,1.246,0.102,1.872,0.286c-0.48-2.035-0.52-3.802-0.084-5.236c0.487-1.601,1.533-2.821,3.109-3.625
		c0.932-0.477,1.904-0.719,2.89-0.719c0.154,0,0.309,0.01,0.462,0.021c0.088-0.515,0.177-1.034,0.265-1.55
		c-1.339-1.299-2.697-2.613-4.059-3.929c-0.115,0.033-0.227,0.078-0.341,0.117c-0.061-0.211-0.121-0.413-0.181-0.623
		c-1.744-1.685-3.498-3.379-5.266-5.083c-0.131,0.771-0.266,1.543-0.398,2.313c0.302,2.075,0.712,4.669,1.215,7.482
		c-0.007,0.014-0.015,0.025-0.022,0.04C220.118,240.961,219.849,241.646,219.623,242.404 M272.329,238.781
		c-1.533-1.508-3.055-3-4.567-4.483c-0.026,0.626-0.114,1.211-0.274,1.751c-0.477,1.604-1.531,2.839-3.138,3.668
		c-0.023,0.011-0.044,0.02-0.067,0.03l-0.779,4.847c-0.001,0-0.001-0.001-0.001-0.001l-0.443,2.753l-0.243,1.518
		c2.28,4.253,4.735,8.546,7.369,12.868c0.179-1.135,0.359-2.27,0.538-3.405c-2.56-4.542-4.843-8.912-6.889-13.067
		C266.235,244.224,269.633,242.269,272.329,238.781 M217.048,265.791c-1.292-2.651-2.057-5.02-2.296-7.054
		c-0.257,1.494-0.517,2.99-0.776,4.483c-0.173,1.006-0.348,2.013-0.521,3.019c0.783-0.341,1.622-0.535,2.526-0.535
		C216.328,265.704,216.685,265.738,217.048,265.791 M209.199,290.859c-0.423,2.444-0.847,4.887-1.268,7.331
		c0.65-1.511,2.097-3.045,5.173-3.785C211.481,293.201,210.189,292.019,209.199,290.859 M211.576,277.117
		c-0.181,1.041-0.361,2.081-0.541,3.122c0.744-0.247,1.562-0.377,2.446-0.385C212.728,278.906,212.101,277.996,211.576,277.117"/>
	<path fill="#F0B600" d="M270.844,134.771c-0.392-3.417-4.392-5.152-11.921-5.152c-0.795,0-1.642,0.021-2.512,0.062
		c-0.679,1.209-1.242,2.164-1.624,2.79c-0.135,1.527-0.398,4.92-0.548,9.521c2.765-2.692,8.247-3.716,12.408-4.095L270.844,134.771z
		 M270.146,197.253c3.278,0.495,6.973,3.26,10.76,8.091c1.354,1.732,2.438,3.331,3.265,4.813c1.433,0.598,2.758,0.911,3.945,0.911
		c1.521,0,2.815-0.52,3.842-1.542c1.036-1.03,1.517-2.172,1.469-3.491c-0.096-2.753-2.497-6.183-7.139-10.197
		c-2.279-1.968-4.425-3.43-6.393-4.401l-9.771,5.755C270.134,197.212,270.138,197.231,270.146,197.253 M290.942,198.94
		c1.007,0.236,1.954,0.372,2.811,0.372h0.001c2.1,0,3.699-0.734,4.752-2.18c0.828-1.145,1.105-2.314,0.851-3.572
		c-0.532-2.615-3.359-5.521-8.396-8.642l-10.014,5.899c1.888,1.004,3.906,2.409,6.021,4.233
		C288.546,196.416,289.867,197.708,290.942,198.94 M241.48,308.02l-1.283,1.37l-3.687,3.938c-4.193,0.046-8.326,0.108-12.353,0.189
		l-2.568,0.048l-4.718,0.091l0.332-1.938c-1.104,1.037-1.747,2.303-1.588,3.853c0.326,3.181,3.539,4.794,9.548,4.794h0.001
		c1.527,0,3.234-0.116,5.068-0.332L241.48,308.02z M264.993,139.126c-3.896,0.513-8.997,1.723-10.801,4.571
		c-0.025,1.028-0.044,2.1-0.054,3.223c0.978-0.641,1.931-1.255,2.859-1.843L264.993,139.126z M218.104,306.478
		c0.648-3.789,1.297-7.572,1.946-11.361c-0.903-0.077-1.774-0.126-2.589-0.126c-3.511,0-7.888,0.746-8.812,4.296
		c-0.321,1.23-0.16,2.326,0.491,3.353c1.241,1.957,4.261,3.582,8.807,4.759L218.104,306.478z M295.201,185.848
		c3.326,0,5.498-1.08,6.451-3.21c0.552-1.229,0.583-2.382,0.096-3.523c-0.061-0.14-0.148-0.28-0.224-0.419l-9.56,5.632
		c0.788,0.501,1.542,1,2.221,1.489C294.535,185.837,294.874,185.848,295.201,185.848 M255.524,215.333
		c-0.866-0.408-1.718-0.618-2.548-0.618c-0.825,0-1.644,0.208-2.434,0.615c-0.003,0.002-0.005,0.004-0.007,0.005
		c0.964-0.002,1.93-0.008,2.893-0.008C254.127,215.327,254.826,215.33,255.524,215.333 M271.616,214.553
		c-3.683-5.486-7.479-8.508-10.687-8.508c-0.951,0-1.869,0.264-2.73,0.784c-1.27,0.767-2.031,1.796-2.329,3.145
		c-0.281,1.268-0.113,2.817,0.452,4.587c0.413,0.216,0.828,0.483,1.242,0.776c0.122,0,0.243,0,0.364,0.001l3.602,0.008l2.111,0.013
		c2.851,0.021,5.699,0.055,8.549,0.09C271.999,215.151,271.822,214.861,271.616,214.553 M377.124,350.389
		c-5.239,0-8.327,1.709-9.18,5.078c-1.289,5.072,3.576,8.476,9.388,10.695c0.934-0.299,2.037-0.482,3.353-0.482
		c3.448,0,7.938,1.23,12.988,3.553c0.056,0.025,0.104,0.051,0.159,0.078c4.488-0.254,7.163-1.942,7.948-5.038
		c1.359-5.327-3.647-9.507-14.883-12.427C383.194,350.878,379.905,350.389,377.124,350.389 M264.499,238.4
		c0.991-0.667,1.66-1.532,1.991-2.647c0.216-0.73,0.282-1.563,0.224-2.481c-0.399-0.391-0.804-0.789-1.201-1.177L264.499,238.4z
		 M227.118,253.821c0.638-3.73,1.278-7.467,1.917-11.197c-0.096-0.005-0.191-0.018-0.286-0.018c-0.819,0-1.631,0.204-2.417,0.606
		c-1.332,0.68-2.178,1.662-2.584,3c-0.434,1.425-0.327,3.25,0.274,5.394C225.056,252.102,226.09,252.843,227.118,253.821
		 M214.526,294.145c0.874-0.122,1.839-0.197,2.935-0.197c0.87,0,1.8,0.056,2.765,0.141c0.604-3.528,1.207-7.055,1.812-10.583
		c-3.278-1.708-6.181-2.614-8.488-2.614c-1.029,0-1.938,0.182-2.719,0.537c-0.465,2.688-0.929,5.372-1.394,8.06
		C210.548,290.978,212.25,292.544,214.526,294.145 M273.435,215.463c3.879,0.053,7.749,0.123,11.606,0.202
		c-0.268-2.557-1.911-5.794-4.954-9.679c-3.934-5.018-7.835-7.781-10.986-7.781c-0.271,0-0.536,0.02-0.798,0.061l-3.352,1.975
		c-0.506,0.631-0.838,1.345-0.965,2.182c-0.149,1.009-0.012,2.172,0.393,3.463c2.632,1.302,5.379,4.033,8.101,8.088
		C272.821,214.482,273.134,214.976,273.435,215.463 M224.433,269.509c0.823-4.807,1.646-9.615,2.468-14.42
		c-2.011-2.083-4.034-3.188-5.936-3.188c-0.819,0-1.633,0.204-2.418,0.605c-1.331,0.68-2.175,1.66-2.581,2.997
		c-0.747,2.461,0.095,6.108,2.402,10.584C220.235,266.64,222.291,267.805,224.433,269.509 M222.222,282.427
		c0.67-3.919,1.341-7.835,2.012-11.751c-3.075-2.555-5.933-3.93-8.251-3.93c-1.003,0-1.921,0.259-2.745,0.761
		c-0.459,2.655-0.917,5.309-1.377,7.964c0.689,1.382,1.7,2.877,3.038,4.473C217.027,280.201,219.505,281.043,222.222,282.427
		 M237.904,324.902c-1.695-2.253-1.726-4.709-0.857-7.104c-4.367,2.487-7.138,5.08-7.889,7.432
		c-0.361,1.141-0.267,2.203,0.295,3.244c0.908,1.676,2.519,2.489,4.923,2.489c2.778,0,6.441-1.107,10.878-3.275
		c-0.493,0.067-0.969,0.103-1.426,0.103C241.335,327.791,239.34,326.819,237.904,324.902 M378.14,410.677
		c-1.504,0-2.839,0.523-3.97,1.556c-2.768,2.521-2.403,6.086-0.625,9.771c3.867,0.854,8.195,4.658,12.631,11.136
		c1.367,2.001,2.493,3.872,3.397,5.619c1.499,0.711,2.896,1.086,4.148,1.086h0.001c1.501,0,2.834-0.521,3.963-1.55
		c4.046-3.684,2.14-9.937-5.661-18.591C386.779,413.882,381.848,410.677,378.14,410.677 M377.124,349.348
		c2.871,0,6.249,0.504,10.038,1.49c0.866,0.229,1.688,0.463,2.485,0.705c2.967-1.034,5.314-2.866,5.49-6.063
		c0.298-5.5-5.419-8.636-16.993-9.323c-1.106-0.064-2.186-0.099-3.213-0.099c-5.326,0-14.317,0.954-14.665,7.337
		c-0.255,4.556,3.82,6.962,8.918,8.204C370.731,350.302,373.197,349.348,377.124,349.348 M380.685,366.721
		c-3.378,0-5.649,1.234-6.751,3.668c-2.824,6.241,5.238,11.533,12.498,14.872c4.912,2.259,9.252,3.451,12.547,3.451h0.001
		c3.383,0,5.657-1.236,6.76-3.675c2.256-5.001-1.951-10-12.502-14.859C388.323,367.917,383.983,366.721,380.685,366.721
		 M398.989,408.794c-3.757,0-8.726-2.083-14.372-6.026c-2.501-1.749-4.489-3.386-6.062-4.916c-0.24,0.209-0.473,0.434-0.687,0.688
		c-2.754,3.271-1.289,7.357,1.689,11.23c3.78,0.668,8.416,3.884,13.241,9.238c1.104,1.227,2.086,2.405,2.964,3.544
		c1.503,0.571,2.891,0.869,4.132,0.869h0.001c1.914,0,3.485-0.713,4.669-2.118c2.744-3.262,1.71-7.59-3.036-12.896
		C400.749,408.657,399.902,408.794,398.989,408.794 M374.932,335.018c1.047,0,2.147,0.033,3.275,0.101
		c3.448,0.203,6.385,0.636,8.846,1.277c0.571-0.367,1.077-0.766,1.502-1.198c1.161-1.188,1.738-2.634,1.718-4.293
		c-0.087-5.386-5.779-8.118-16.921-8.118l-0.667,0.004c-7.633,0.077-13.038,1.521-15.63,4.178c-1.161,1.19-1.737,2.636-1.713,4.298
		c0.053,3.69,2.849,5.773,6.628,6.903C364.571,336.113,368.963,335.018,374.932,335.018 M396.296,389.535
		c-2.974-0.444-6.475-1.57-10.299-3.329c-2.664-1.224-4.846-2.435-6.624-3.615c-1.624,0.298-2.918,1.12-3.849,2.47
		c-3.87,5.628,3.134,12.271,9.688,16.854c5.472,3.818,10.235,5.838,13.775,5.838h0.002c2.309,0,4.081-0.877,5.271-2.604
		C407.177,400.918,404.494,395.67,396.296,389.535 M371.911,422.859c-1.17,0-2.279,0.355-3.299,1.061
		c-5.6,3.863-1.387,12.561,3.134,19.175c4.792,7.014,9.556,10.875,13.409,10.877l0,0c1.167,0,2.276-0.356,3.292-1.06
		c4.501-3.102,3.447-9.557-3.13-19.184C380.518,426.719,375.758,422.859,371.911,422.859 M286.291,296.658
		c-1.113-0.781-2.505-1.175-4.215-1.175c-3.331,0-7.751,1.491-13.143,4.431c-5.726,3.126-14.819,9.315-11.373,15.663
		c1.191,2.197,3.259,3.313,6.146,3.313h0.001c3.395,0,7.813-1.476,13.134-4.384c1.88-1.026,4.124-2.387,6.168-3.973
		C279.822,306.266,282.775,300.838,286.291,296.658 M372.674,321.749l0.672-0.004c0.803,0,1.573,0.018,2.322,0.048
		c0.371-0.21,0.724-0.427,1.053-0.646c2.973-1.988,4.225-4.384,3.72-7.116c-0.727-3.896-4.236-5.872-10.438-5.872
		c-2.364,0-5.14,0.288-8.25,0.859c-5.111,0.941-9.238,2.393-11.934,4.197c-2.971,1.988-4.222,4.383-3.718,7.116
		c0.707,3.805,4.172,5.765,10.289,5.834C359.207,323.356,364.83,321.828,372.674,321.749 M256.646,316.073
		c-2.48-4.571,0.313-9.715,7.865-14.714c-0.896-0.483-1.914-0.729-3.077-0.729c-3.482,0-8.115,2.172-13.768,6.456
		c-4.186,3.175-13.437,11.201-8.931,17.191c1.25,1.665,2.914,2.472,5.093,2.472h0.001c3.511,0,8.285-2.213,13.804-6.398
		c0.571-0.435,1.181-0.914,1.801-1.428C258.263,318.276,257.323,317.32,256.646,316.073 M309.975,289.418
		c0.414-0.357,0.82-0.697,1.223-1.024c-0.217-0.405-0.481-0.798-0.813-1.179c-1.275-1.461-2.82-2.172-4.724-2.172
		c-3.557,0-8.211,2.52-13.84,7.485c-3.943,3.469-12.584,12.148-7.656,17.791c1.225,1.406,2.794,2.116,4.669,2.116
		c3.154,0,7.263-1.998,11.967-5.801C298.289,300.443,306.168,292.689,309.975,289.418 M349.24,312.349
		c2.813-1.881,7.073-3.386,12.325-4.354c1.259-0.23,2.448-0.402,3.598-0.543c2.46-2.371,3.265-4.862,2.364-7.413
		c-1.058-3.006-3.58-4.467-7.714-4.467c-3.04,0-6.91,0.823-11.501,2.446c-4.948,1.739-16.187,6.55-13.706,13.63
		c1.03,2.93,3.657,4.414,7.803,4.414h0.001c1.066,0,2.229-0.103,3.475-0.296C346.536,314.624,347.59,313.457,349.24,312.349
		 M347.968,297.037c1.14-0.404,2.236-0.756,3.292-1.062c0.983-1.994,1.189-4.094-0.013-6.15c-1.248-2.143-3.174-3.181-5.891-3.181
		c-3.364,0-7.853,1.633-13.339,4.856c-5.626,3.306-14.52,9.777-10.864,16.013c1.225,2.099,3.15,3.119,5.891,3.119
		c1.751,0,3.838-0.454,6.178-1.318C333.53,302.868,343.339,298.664,347.968,297.037 M330.368,291.29
		c0.655-2.188,0.483-4.33-1.098-6.189c-1.275-1.493-2.837-2.218-4.774-2.218c-3.54,0-8.196,2.462-13.842,7.323
		c-3.983,3.426-12.727,12.007-7.865,17.704c1.249,1.462,2.8,2.17,4.74,2.17h0.001c3.1,0,7.131-1.897,11.747-5.51
		C319.229,300.402,323.027,295.819,330.368,291.29"/>
	<path d="M264.499,238.4l-0.218,1.348c0.022-0.011,0.046-0.019,0.068-0.03c1.605-0.83,2.661-2.064,3.139-3.668
		c0.16-0.54,0.246-1.126,0.273-1.751c-0.351-0.342-0.701-0.685-1.048-1.027c0.06,0.919-0.008,1.751-0.224,2.482
		C266.158,236.869,265.49,237.732,264.499,238.4 M288.116,211.068c-1.188,0-2.513-0.314-3.945-0.911
		c-0.827-1.482-1.91-3.081-3.266-4.813c-3.786-4.83-7.479-7.597-10.759-8.091c-0.008-0.021-0.014-0.041-0.021-0.061l-1.822,1.074
		c0.262-0.041,0.527-0.061,0.798-0.061c3.151,0,7.053,2.764,10.986,7.78c3.043,3.885,4.687,7.124,4.954,9.68
		c0.356,0.007,0.71,0.019,1.066,0.026c-0.112-1.266-0.519-2.654-1.237-4.181c1.152,0.381,2.243,0.597,3.246,0.597
		c1.806,0,3.346-0.621,4.576-1.844c1.234-1.229,1.832-2.666,1.775-4.267c-0.062-1.764-0.889-3.686-2.499-5.803
		c0.621,0.094,1.223,0.158,1.785,0.158c2.419,0,4.353-0.903,5.595-2.611c0.994-1.375,1.34-2.85,1.027-4.388
		c-0.423-2.089-2.002-4.228-4.79-6.477c4.417-0.112,6.257-2.119,7.015-3.813c0.669-1.488,0.704-2.955,0.105-4.358
		c-0.078-0.183-0.185-0.363-0.282-0.542l-0.898,0.531c0.074,0.141,0.163,0.279,0.223,0.419c0.488,1.141,0.456,2.294-0.096,3.523
		c-0.953,2.131-3.124,3.21-6.45,3.21c-0.328,0-0.667-0.011-1.017-0.033c-0.68-0.49-1.433-0.987-2.221-1.489l-1.004,0.59
		c5.036,3.121,7.864,6.028,8.396,8.643c0.256,1.259-0.022,2.427-0.852,3.571c-1.052,1.447-2.651,2.181-4.751,2.181h-0.001
		c-0.856,0-1.804-0.134-2.811-0.373c-1.075-1.23-2.396-2.524-3.976-3.889c-2.113-1.825-4.132-3.229-6.02-4.233l-1.052,0.619
		c1.968,0.973,4.113,2.435,6.393,4.402c4.642,4.014,7.043,7.443,7.139,10.195c0.049,1.32-0.433,2.462-1.468,3.493
		C290.932,210.548,289.638,211.068,288.116,211.068 M222.038,283.505c0.061-0.359,0.122-0.719,0.184-1.078
		c-2.717-1.384-5.195-2.226-7.324-2.483c-1.337-1.596-2.348-3.091-3.038-4.473c-0.096,0.549-0.19,1.096-0.285,1.646
		c0.527,0.879,1.153,1.789,1.907,2.739c-0.883,0.006-1.703,0.136-2.446,0.383c-0.069,0.396-0.137,0.792-0.205,1.188
		c0.781-0.355,1.69-0.537,2.719-0.537C215.857,280.891,218.759,281.797,222.038,283.505 M270.844,134.771l0.938-0.7
		c-0.783-3.641-5.092-5.492-12.859-5.492c-0.613,0-1.264,0.016-1.926,0.04c-0.203,0.373-0.398,0.729-0.586,1.062
		c0.87-0.041,1.717-0.062,2.512-0.062C266.452,129.619,270.452,131.354,270.844,134.771 M215.479,266.786
		c0.005,0.011,0.001-0.011,0.006,0.001c0.166-0.016,0.327-0.042,0.498-0.042c2.318,0,5.176,1.375,8.251,3.929l0.199-1.166
		c-2.142-1.705-4.197-2.869-6.064-3.424c-2.307-4.475-3.149-8.122-2.402-10.584c0.405-1.336,1.25-2.316,2.581-2.996
		c0.786-0.402,1.599-0.605,2.418-0.605c1.901,0,3.924,1.105,5.936,3.188c0.072-0.422,0.146-0.845,0.218-1.268
		c-1.027-0.978-2.062-1.719-3.096-2.214c-0.601-2.144-0.708-3.969-0.275-5.394c0.408-1.338,1.253-2.32,2.584-3
		c0.787-0.403,1.599-0.605,2.418-0.605c0.095,0,0.19,0.012,0.285,0.017c0.06-0.345,0.118-0.69,0.178-1.036
		c-0.155-0.012-0.309-0.022-0.463-0.022c-0.985,0-1.958,0.241-2.889,0.719c-1.576,0.804-2.622,2.024-3.109,3.626
		c-0.436,1.434-0.396,3.2,0.083,5.235c-0.626-0.185-1.25-0.287-1.87-0.287c-0.984,0-1.957,0.241-2.892,0.719
		c-1.074,0.55-1.896,1.295-2.466,2.219c-0.286,1.646-0.569,3.292-0.854,4.94c0.239,2.033,1.004,4.403,2.296,7.054
		c-0.364-0.053-0.722-0.086-1.066-0.086c-0.151,0-0.299,0.007-0.445,0.02c-0.136,0.012-0.268,0.029-0.401,0.047l-0.002-0.005
		c-0.027,0.005-0.051,0.009-0.079,0.013c-0.013,0.003-0.029,0.004-0.042,0.006v0.001c-0.714,0.107-1.263,0.319-1.558,0.452
		c-0.073,0.422-0.145,0.845-0.219,1.267c0.001-0.006,0.002-0.012,0.004-0.018C214.229,266.946,215.141,266.822,215.479,266.786
		 M405.118,405.741c3.115-4.525,0.787-9.908-6.895-16.021c0.254,0.012,0.516,0.031,0.756,0.031c4.77,0,6.824-2.329,7.707-4.286
		c2.387-5.288-1.344-10.431-11.078-15.302c4.854-0.762,6.608-3.378,7.18-5.635c1.345-5.266-2.556-9.458-11.59-12.496
		c3.095-1.404,4.817-3.594,4.978-6.498c0.226-4.133-2.415-7.061-7.839-8.772c0.347-0.267,0.674-0.543,0.962-0.839
		c1.36-1.393,2.038-3.084,2.013-5.037c-0.084-5.313-4.734-8.332-13.838-8.997c4.003-2.765,4.388-5.894,3.991-8.048
		c-0.572-3.066-3.025-6.723-11.462-6.723c-1.005,0-2.098,0.063-3.24,0.164c2.556-2.981,2.403-5.727,1.745-7.59
		c-1.204-3.424-4.13-5.161-8.693-5.161c-2.076,0-4.516,0.371-7.272,1.092c0.806-2.036,0.855-4.182-0.397-6.324
		c-1.428-2.454-3.713-3.698-6.788-3.698c-3.527,0-8.155,1.664-13.748,4.938c0.434-2.316-0.069-4.378-1.546-6.115
		c-1.466-1.714-3.339-2.582-5.566-2.582c-3.345,0-7.539,1.981-12.486,5.896c-0.239-0.417-0.507-0.823-0.843-1.209
		c-1.464-1.674-3.316-2.527-5.507-2.527c-3.816,0-8.704,2.606-14.526,7.744c-1.148,1.011-2.671,2.444-4.161,4.12
		c-1.301-0.939-2.933-1.423-4.896-1.423c-3.506,0-8.095,1.534-13.642,4.557c-1.05,0.574-2.019,1.151-2.941,1.729
		c-1.16-0.756-2.516-1.139-4.06-1.139c-3.717,0-8.56,2.242-14.396,6.669c-2.626,1.988-7.119,5.795-9.298,9.967
		c-4.003,2.125-8.456,5.181-9.573,8.688c-0.446,1.406-0.323,2.769,0.372,4.058c1.091,2.014,3.055,3.035,5.838,3.035
		c3,0,6.913-1.188,11.631-3.524c1.321-0.656,2.745-1.428,4.119-2.295c2.477-1.113,5.211-2.79,8.134-5.007
		c0.789-0.599,1.52-1.19,2.223-1.783c0.958,0.35,2.036,0.531,3.224,0.531c3.572,0,8.157-1.517,13.631-4.51
		c2.475-1.351,4.587-2.721,6.351-4.097c1.382,1.424,3.109,2.154,5.146,2.154c3.351,0,7.621-2.027,12.448-5.894
		c0.205,0.34,0.437,0.675,0.716,1.003c1.438,1.684,3.3,2.535,5.532,2.535c3.208,0,7.273-1.838,11.869-5.337
		c0.152,0.768,0.426,1.522,0.855,2.253c1.407,2.412,3.692,3.637,6.79,3.637c1.786,0,3.881-0.429,6.214-1.262
		c0.063,0.516,0.178,1.041,0.367,1.582c0.818,2.329,3.008,5.109,8.784,5.109c0.921,0,1.911-0.077,2.952-0.211
		c-0.481,1.334-0.476,2.594-0.284,3.629c0.776,4.178,4.292,6.417,10.455,6.665c-0.836,1.194-1.253,2.567-1.231,4.096
		c0.039,2.779,1.464,5.913,6.773,7.696c-1.125,1.198-1.754,2.657-1.847,4.359c-0.184,3.25,1.488,7.082,9.102,9.115
		c-0.736,0.881-1.163,1.849-1.393,2.757c-0.866,3.405,0.261,7.899,9.026,11.528c-1.571,0.857-2.472,2.101-2.98,3.223
		c-1.343,2.969-1.157,7.163,5.263,11.846c-1.466,0.469-2.682,1.363-3.579,2.664c-1.847,2.688-2.4,6.861,3.152,12.643
		c-0.259,0.23-0.512,0.478-0.747,0.756c-1.973,2.342-2.932,6.103,1.095,11.77c-0.009,0-0.019-0.002-0.026-0.002
		c-1.772,0-3.345,0.614-4.671,1.826c-2.084,1.897-3.472,5.098-1.142,10.38c-0.141-0.008-0.279-0.024-0.418-0.024
		c-1.384,0-2.692,0.419-3.89,1.244c-3.478,2.403-5.806,7.928,2.865,20.619c5.067,7.41,10,11.329,14.27,11.329
		c1.384,0,2.69-0.419,3.882-1.242c3.8-2.618,4.207-7.177,1.239-13.59c1.222,0.462,2.378,0.707,3.447,0.707
		c1.769,0,3.337-0.614,4.662-1.82c3.683-3.353,3.153-8.409-1.551-15.065c1.086,0.305,2.111,0.463,3.062,0.463
		c2.235,0,4.074-0.838,5.466-2.49c3.074-3.652,2.112-8.34-2.812-13.973C403.569,407.486,404.436,406.73,405.118,405.741
		 M234.377,330.964c-2.405,0-4.016-0.813-4.923-2.487c-0.562-1.043-0.658-2.105-0.295-3.248c0.75-2.35,3.522-4.942,7.889-7.43
		c-0.868,2.395-0.838,4.851,0.857,7.104c1.437,1.917,3.432,2.889,5.925,2.889c0.457,0,0.933-0.035,1.426-0.103
		C240.818,329.856,237.155,330.964,234.377,330.964 M257.633,320.352c-5.519,4.188-10.292,6.398-13.804,6.398h-0.001
		c-2.179,0-3.843-0.807-5.093-2.472c-4.506-5.99,4.745-14.017,8.931-17.191c5.652-4.284,10.285-6.456,13.768-6.456
		c1.163,0,2.182,0.245,3.076,0.729c-7.551,4.999-10.345,10.143-7.864,14.714c0.678,1.247,1.618,2.203,2.788,2.851
		C258.813,319.438,258.204,319.917,257.633,320.352 M276.841,314.507c-5.321,2.908-9.739,4.384-13.134,4.384h-0.001
		c-2.887,0-4.954-1.116-6.146-3.313c-3.446-6.348,5.647-12.537,11.373-15.663c5.392-2.939,9.812-4.431,13.143-4.431
		c1.711,0,3.103,0.394,4.215,1.175c-3.515,4.18-6.469,9.607-3.282,13.876C280.966,312.12,278.721,313.48,276.841,314.507
		 M300.8,306.635c-4.703,3.803-8.812,5.801-11.966,5.801c-1.875,0-3.444-0.712-4.669-2.116c-4.928-5.643,3.713-14.322,7.656-17.791
		c5.629-4.966,10.283-7.485,13.839-7.485c1.904,0,3.448,0.711,4.725,2.172c0.331,0.381,0.596,0.773,0.813,1.179
		c-0.402,0.327-0.809,0.667-1.223,1.022C306.168,292.691,298.289,300.443,300.8,306.635 M319.277,304.57
		c-4.615,3.612-8.647,5.512-11.747,5.512h-0.001c-1.94,0-3.491-0.71-4.74-2.174c-4.861-5.695,3.882-14.278,7.865-17.702
		c5.646-4.859,10.302-7.323,13.842-7.323c1.938,0,3.499,0.725,4.774,2.218c1.581,1.859,1.753,4.002,1.098,6.189
		C323.027,295.819,319.229,300.402,319.277,304.57 M333.222,309.314c-2.34,0.864-4.427,1.318-6.177,1.318
		c-2.739,0-4.667-1.021-5.892-3.119c-3.655-6.235,5.238-12.707,10.865-16.011c5.485-3.226,9.974-4.858,13.338-4.858
		c2.717,0,4.644,1.038,5.891,3.181c1.203,2.057,0.996,4.156,0.013,6.15c-1.056,0.306-2.152,0.657-3.292,1.062
		C343.339,298.664,333.531,302.868,333.222,309.314 M342.41,316.063L342.41,316.063c-4.147,0-6.772-1.486-7.804-4.414
		c-2.48-7.08,8.758-11.891,13.706-13.63c4.591-1.623,8.461-2.446,11.502-2.446c4.133,0,6.656,1.461,7.713,4.467
		c0.9,2.553,0.096,5.042-2.363,7.413c-1.15,0.139-2.34,0.313-3.599,0.543c-5.252,0.968-9.513,2.475-12.325,4.354
		c-1.65,1.106-2.704,2.275-3.355,3.418C344.64,315.96,343.477,316.063,342.41,316.063 M346.102,320.332
		c-0.505-2.735,0.747-5.128,3.718-7.116c2.695-1.805,6.822-3.256,11.935-4.197c3.109-0.571,5.885-0.859,8.249-0.859
		c6.2,0,9.711,1.977,10.438,5.872c0.505,2.732-0.747,5.126-3.721,7.116c-0.328,0.219-0.681,0.436-1.052,0.644
		c-0.749-0.028-1.52-0.046-2.322-0.046l-0.671,0.004c-7.845,0.079-13.468,1.607-16.284,4.415
		C350.273,326.095,346.809,324.137,346.102,320.332 M355.342,331.266c-0.024-1.662,0.552-3.107,1.713-4.298
		c2.593-2.657,7.997-4.101,15.63-4.178l0.666-0.004c11.143,0,16.836,2.73,16.922,8.118c0.021,1.659-0.557,3.104-1.718,4.293
		c-0.425,0.433-0.931,0.831-1.502,1.198c-2.461-0.642-5.397-1.074-8.846-1.277c-1.128-0.067-2.229-0.101-3.275-0.101
		c-5.969,0-10.36,1.096-12.962,3.151C358.19,337.041,355.395,334.956,355.342,331.266 M360.267,343.395
		c0.35-6.383,9.339-7.337,14.665-7.337c1.027,0,2.106,0.032,3.213,0.099c11.575,0.688,17.291,3.825,16.993,9.323
		c-0.176,3.197-2.523,5.029-5.49,6.063c-0.797-0.242-1.619-0.478-2.485-0.702c-3.789-0.989-7.167-1.491-10.037-1.491
		c-3.928,0-6.394,0.952-7.94,2.249C364.087,350.356,360.012,347.95,360.267,343.395 M367.944,355.469
		c0.853-3.371,3.94-5.08,9.181-5.08c2.782,0,6.07,0.491,9.773,1.457c11.234,2.92,16.241,7.102,14.882,12.427
		c-0.785,3.096-3.46,4.784-7.948,5.038c-0.054-0.027-0.104-0.053-0.16-0.078c-5.048-2.322-9.54-3.553-12.988-3.553
		c-1.314,0-2.417,0.184-3.352,0.482C371.521,363.942,366.655,360.539,367.944,355.469 M373.934,370.389
		c1.102-2.434,3.372-3.668,6.75-3.668c3.3,0,7.64,1.196,12.554,3.457c10.552,4.861,14.758,9.858,12.502,14.859
		c-1.103,2.438-3.377,3.675-6.76,3.675h-0.001c-3.295,0-7.635-1.192-12.547-3.451C379.172,381.922,371.109,376.63,373.934,370.389
		 M375.525,385.061c0.93-1.35,2.224-2.172,3.848-2.47c1.778,1.181,3.96,2.392,6.624,3.615c3.824,1.759,7.325,2.885,10.299,3.329
		c8.198,6.135,10.881,11.383,7.965,15.613c-1.19,1.728-2.963,2.604-5.272,2.604c-3.54,0-8.305-2.02-13.774-5.838
		C378.657,397.332,371.654,390.688,375.525,385.061 M388.447,452.912c-1.016,0.703-2.125,1.06-3.292,1.06l0,0
		c-3.854-0.002-8.616-3.863-13.409-10.877c-4.519-6.614-8.733-15.312-3.134-19.175c1.02-0.705,2.129-1.061,3.298-1.061
		c3.848,0,8.607,3.859,13.407,10.869C391.895,443.355,392.947,449.811,388.447,452.912 M397.686,438.295
		c-1.129,1.029-2.462,1.55-3.962,1.55h-0.001c-1.253,0-2.65-0.375-4.149-1.086c-0.903-1.747-2.03-3.616-3.397-5.619
		c-4.436-6.478-8.764-10.282-12.63-11.136c-1.779-3.684-2.144-7.25,0.624-9.771c1.131-1.032,2.466-1.556,3.971-1.556
		c3.707,0,8.639,3.207,13.884,9.027C399.825,428.356,401.731,434.611,397.686,438.295 M404.565,421.302
		c-1.184,1.407-2.755,2.12-4.669,2.12h-0.001c-1.241,0-2.629-0.298-4.132-0.869c-0.877-1.139-1.859-2.317-2.965-3.544
		c-4.824-5.354-9.459-8.57-13.24-9.238c-2.978-3.873-4.443-7.959-1.689-11.23c0.214-0.255,0.446-0.479,0.687-0.688
		c1.572,1.53,3.56,3.167,6.062,4.916c5.646,3.943,10.615,6.026,14.371,6.026c0.913,0,1.761-0.137,2.541-0.386
		C406.276,413.714,407.311,418.042,404.565,421.302 M230.233,320.031c-1.834,0.218-3.541,0.334-5.067,0.334h-0.001
		c-6.01,0-9.222-1.615-9.547-4.794c-0.159-1.55,0.482-2.815,1.587-3.853l0.271-1.577c-1.92,1.353-3.139,3.147-2.893,5.534
		c0.388,3.803,3.949,5.728,10.583,5.728c1.222,0,2.557-0.07,3.977-0.207L230.233,320.031z M217.947,307.397
		c-4.545-1.177-7.565-2.802-8.806-4.759c-0.651-1.026-0.812-2.124-0.491-3.353c0.924-3.55,5.301-4.296,8.812-4.296
		c0.814,0,1.686,0.049,2.589,0.126l0.176-1.03c-0.964-0.083-1.895-0.137-2.765-0.137c-1.096,0-2.061,0.073-2.936,0.195
		c-2.275-1.601-3.977-3.167-5.089-4.657c-0.079,0.456-0.158,0.914-0.236,1.372c0.991,1.161,2.283,2.342,3.905,3.546
		c-3.076,0.74-4.522,2.274-5.173,3.785c-0.153,0.885-0.306,1.771-0.46,2.657c0.063,0.826,0.323,1.611,0.791,2.35
		c1.408,2.222,4.604,3.975,9.507,5.229L217.947,307.397z M264.993,139.126l1.654-1.231c-4.161,0.379-9.644,1.403-12.408,4.095
		c-0.016,0.551-0.034,1.123-0.047,1.708C255.996,140.849,261.098,139.639,264.993,139.126 M250.543,215.33
		c0.79-0.407,1.609-0.615,2.434-0.615c0.83,0,1.682,0.21,2.549,0.618c0.679,0.002,1.359,0.002,2.038,0.005
		c-0.413-0.293-0.828-0.561-1.241-0.777c-0.565-1.77-0.733-3.319-0.452-4.586c0.298-1.349,1.06-2.378,2.329-3.146
		c0.862-0.519,1.779-0.783,2.73-0.783c3.208,0,7.004,3.022,10.688,8.508c0.206,0.308,0.382,0.598,0.573,0.897
		c0.414,0.005,0.828,0.008,1.243,0.014c-0.3-0.488-0.612-0.982-0.954-1.491c-2.722-4.054-5.469-6.787-8.101-8.089
		c-0.404-1.291-0.542-2.454-0.393-3.461c0.126-0.837,0.459-1.552,0.965-2.184l-1.747,1.03c-0.106,0.321-0.193,0.652-0.245,1
		c-0.142,0.947-0.053,1.996,0.213,3.122c-0.76-0.253-1.51-0.386-2.242-0.386c-1.143,0-2.242,0.314-3.269,0.934
		c-1.505,0.91-2.45,2.191-2.809,3.81c-0.275,1.242-0.188,2.676,0.223,4.274c-0.703-0.231-1.403-0.349-2.099-0.349
		c-0.992,0-1.972,0.246-2.912,0.731c-0.514,0.266-0.965,0.581-1.365,0.934l1.836-0.005
		C250.538,215.333,250.54,215.332,250.543,215.33"/>
</g>
</svg>
